<svg width="121" height="117" viewBox="0 0 121 117" fill="none" xmlns="http://www.w3.org/2000/svg">
<path d="M90.9807 7.78646C91.4486 7.48085 91.8514 7.08515 92.1658 6.62225C92.4802 6.15936 92.7 5.63848 92.8125 5.08975C92.925 4.54102 92.9279 3.97535 92.8211 3.42549C92.7142 2.87562 92.4998 2.35249 92.1902 1.88636C91.8805 1.42023 91.4818 1.02036 91.0172 0.709917C90.5525 0.39947 90.0311 0.184605 89.4832 0.0777588C88.9352 -0.0290874 88.3716 -0.025792 87.8249 0.0874545C87.2782 0.200701 86.7593 0.42165 86.2983 0.737509L69.893 11.7176C66.9048 10.5219 63.717 9.90847 60.5 9.91018C57.1795 9.91018 54.011 10.5484 51.107 11.7176L34.7017 0.737509C33.7702 0.129022 32.6372 -0.0861986 31.5485 0.138565C30.4599 0.363328 29.5036 1.00993 28.8871 1.93803C28.2705 2.86612 28.0437 4.00079 28.2556 5.09575C28.4676 6.1907 29.1013 7.15756 30.0193 7.78646L43.3011 16.6711C39.3047 20.3795 36.605 25.2814 35.6021 30.6504C38.1068 30.0065 40.6819 29.6802 43.2673 29.6789H77.7383C80.3909 29.6864 82.9441 30.0102 85.3979 30.6504C84.395 25.2814 81.6953 20.3795 77.6989 16.6711L90.9807 7.78646ZM0 72.0404C0 70.9169 0.444704 69.8394 1.23628 69.0449C2.02786 68.2505 3.10147 67.8042 4.22093 67.8042H21.1047V60.3938C21.1047 55.6719 22.5679 51.2945 25.0667 47.6966L11.0926 42.0823C10.0764 41.6487 9.26996 40.8326 8.8463 39.8092C8.42264 38.7857 8.41548 37.6364 8.82635 36.6077C9.23723 35.5791 10.0334 34.753 11.0442 34.3066C12.0549 33.8602 13.1997 33.8291 14.233 34.22L31.8821 41.3029C35.319 39.2281 39.2566 38.138 43.2673 38.1512H77.7327C81.8973 38.1512 85.7918 39.3034 89.1179 41.3029L106.767 34.22C107.284 33.9994 107.839 33.8846 108.401 33.8823C108.963 33.88 109.519 33.9902 110.038 34.2064C110.557 34.4227 111.027 34.7407 111.422 35.1418C111.817 35.5429 112.128 36.019 112.337 36.5422C112.545 37.0655 112.648 37.6253 112.639 38.1889C112.63 38.7526 112.508 39.3086 112.282 39.8246C112.056 40.3406 111.729 40.806 111.322 41.1937C110.914 41.5814 110.433 41.8835 109.907 42.0823L95.9333 47.6966C98.5265 51.418 99.9103 55.8527 99.8953 60.3938V67.8042H116.779C117.899 67.8042 118.972 68.2505 119.764 69.0449C120.555 69.8394 121 70.9169 121 72.0404C121 73.1639 120.555 74.2413 119.764 75.0358C118.972 75.8302 117.899 76.2765 116.779 76.2765H99.8953V77.6886C99.8992 84.1229 98.3382 90.4609 95.348 96.1525L109.907 101.998C110.947 102.416 111.779 103.232 112.219 104.265C112.66 105.298 112.673 106.465 112.257 107.508C111.841 108.552 111.028 109.386 109.999 109.828C108.969 110.271 107.807 110.284 106.767 109.866L90.4911 103.326C83.9592 111.023 74.7371 115.916 64.7209 117V77.6886C64.7209 76.5651 64.2762 75.4876 63.4846 74.6931C62.6931 73.8987 61.6195 73.4524 60.5 73.4524C59.3805 73.4524 58.3069 73.8987 57.5154 74.6931C56.7238 75.4876 56.2791 76.5651 56.2791 77.6886V117C46.2637 115.918 37.0418 111.027 30.5089 103.331L14.2386 109.861C13.7238 110.068 13.1735 110.171 12.619 110.164C12.0645 110.158 11.5168 110.042 11.007 109.823C10.4972 109.604 10.0353 109.286 9.64785 108.888C9.26035 108.49 8.95478 108.019 8.74858 107.503C8.54238 106.986 8.43959 106.434 8.44608 105.877C8.45256 105.321 8.5682 104.771 8.78639 104.259C9.00457 103.748 9.32103 103.284 9.7177 102.895C10.1144 102.506 10.5835 102.2 11.0982 101.993L25.6633 96.1469C22.67 90.4579 21.1052 84.1219 21.1047 77.6886V76.2765H4.22093C3.10147 76.2765 2.02786 75.8302 1.23628 75.0358C0.444704 74.2413 0 73.1639 0 72.0404Z" fill="white"/>
</svg>
