<svg width="55" height="68" viewBox="0 0 55 68" fill="none" xmlns="http://www.w3.org/2000/svg">
<path d="M29.3824 65.9073L29.348 65.9135L29.1264 66.0228L29.064 66.0353L29.0203 66.0228L28.7986 65.9135C28.7653 65.9031 28.7404 65.9083 28.7237 65.9291L28.7112 65.9603L28.6582 67.2963L28.6738 67.3588L28.705 67.3993L29.0296 67.6303L29.0765 67.6428L29.1139 67.6303L29.4385 67.3993L29.476 67.3494L29.4885 67.2963L29.4354 65.9635C29.4271 65.9302 29.4094 65.9114 29.3824 65.9073ZM30.2095 65.5546L30.169 65.5608L29.5915 65.8511L29.5603 65.8823L29.5509 65.9166L29.6071 67.2589L29.6227 67.2963L29.6477 67.3182L30.2751 67.6085C30.3146 67.6189 30.3448 67.6106 30.3656 67.5835L30.3781 67.5398L30.272 65.6232C30.2616 65.5858 30.2408 65.5629 30.2095 65.5546ZM27.9777 65.5608C27.9639 65.5525 27.9475 65.5498 27.9318 65.5532C27.9161 65.5567 27.9023 65.5661 27.8934 65.5795L27.8747 65.6232L27.7686 67.5398C27.7706 67.5773 27.7883 67.6022 27.8216 67.6147L27.8684 67.6085L28.4959 67.3182L28.5271 67.2932L28.5396 67.2589L28.5926 65.9166L28.5833 65.8792L28.552 65.848L27.9777 65.5608Z" fill="#7177F8"/>
<path d="M30.6533 3.12148C30.6533 2.29361 30.3244 1.49965 29.739 0.914259C29.1536 0.328869 28.3597 0 27.5318 0C26.7039 0 25.91 0.328869 25.3246 0.914259C24.7392 1.49965 24.4103 2.29361 24.4103 3.12148V6.12434L22.3689 5.04431C22.0065 4.85267 21.6099 4.73428 21.2018 4.69591C20.7937 4.65753 20.382 4.69991 19.9903 4.82064C19.5985 4.94136 19.2344 5.13807 18.9187 5.39951C18.603 5.66096 18.3418 5.98203 18.1502 6.3444C17.9586 6.70677 17.8402 7.10333 17.8018 7.51146C17.7634 7.91958 17.8058 8.33126 17.9265 8.723C18.0473 9.11474 18.244 9.47887 18.5054 9.79459C18.7669 10.1103 19.0879 10.3714 19.4503 10.5631L24.4103 13.1851V19.1222C22.213 19.6908 20.2122 20.8477 18.6231 22.4684L13.4789 19.4967L13.688 13.8906C13.7187 13.0631 13.4193 12.2574 12.8559 11.6506C12.2925 11.0439 11.5111 10.6858 10.6836 10.6552C9.85617 10.6245 9.05044 10.9239 8.44368 11.4873C7.83692 12.0507 7.47884 12.8321 7.44821 13.6596L7.36393 15.9664L4.76374 14.468C4.4084 14.2482 4.01254 14.102 3.59963 14.038C3.18672 13.9739 2.76516 13.9935 2.35994 14.0954C1.95473 14.1974 1.5741 14.3796 1.24063 14.6314C0.907155 14.8832 0.627626 15.1993 0.418609 15.5611C0.209593 15.9229 0.0753437 16.323 0.0238211 16.7377C-0.0277016 17.1523 0.00455124 17.5731 0.118666 17.9751C0.232782 18.377 0.426437 18.752 0.688152 19.0777C0.949867 19.4035 1.27432 19.6733 1.64226 19.8713L4.24245 21.3728L2.28529 22.6026C1.60265 23.0513 1.12308 23.7496 0.949488 24.5478C0.7759 25.3461 0.922129 26.1805 1.35679 26.8721C1.79146 27.5638 2.47992 28.0574 3.27444 28.2472C4.06896 28.437 4.90622 28.3078 5.60654 27.8873L10.3574 24.9031L15.4985 27.8717C14.8907 30.059 14.8907 32.3706 15.4985 34.5579L10.3574 37.5233L5.60654 34.5423C4.90622 34.1218 4.06896 33.9925 3.27444 34.1823C2.47992 34.3721 1.79146 34.8658 1.35679 35.5574C0.922129 36.249 0.7759 37.0835 0.949488 37.8817C1.12308 38.6799 1.60265 39.3783 2.28529 39.8269L4.24245 41.0568L1.64226 42.5551C1.28707 42.7601 0.975723 43.033 0.726001 43.3583C0.476278 43.6835 0.293071 44.0548 0.186838 44.4509C0.0806061 44.847 0.0534296 45.2601 0.10686 45.6667C0.160291 46.0733 0.293282 46.4654 0.498242 46.8206C0.703201 47.1758 0.976114 47.4871 1.3014 47.7369C1.62668 47.9866 1.99797 48.1698 2.39406 48.276C2.79014 48.3823 3.20328 48.4094 3.60987 48.356C4.01646 48.3026 4.40855 48.1696 4.76374 47.9646L7.36081 46.4632L7.44821 48.7731C7.46358 49.1828 7.5595 49.5855 7.7305 49.9581C7.90149 50.3308 8.1442 50.6661 8.44478 50.9449C8.74537 51.2238 9.09792 51.4407 9.48233 51.5833C9.86674 51.7258 10.2755 51.7913 10.6852 51.7759C11.0949 51.7606 11.4976 51.6647 11.8702 51.4937C12.2429 51.3227 12.5782 51.08 12.857 50.7794C13.1359 50.4788 13.3528 50.1262 13.4954 49.7418C13.6379 49.3574 13.7034 48.9487 13.688 48.539L13.4789 42.9328L18.6231 39.9612C20.2122 41.5818 22.213 42.7387 24.4103 43.3074V49.2444L19.4503 51.8665C18.7185 52.2535 18.1703 52.9154 17.9265 53.7065C17.6827 54.4977 17.7632 55.3533 18.1502 56.0851C18.5372 56.817 19.1991 57.3651 19.9903 57.6089C20.7814 57.8527 21.637 57.7723 22.3689 57.3852L24.4103 56.3052V59.3081C24.4103 60.1359 24.7392 60.9299 25.3246 61.5153C25.91 62.1007 26.7039 62.4295 27.5318 62.4295C28.3597 62.4295 29.1536 62.1007 29.739 61.5153C30.3244 60.9299 30.6533 60.1359 30.6533 59.3081V56.3052L32.6947 57.3852C33.4266 57.7723 34.2822 57.8527 35.0733 57.6089C35.8645 57.3651 36.5264 56.817 36.9134 56.0851C37.3004 55.3533 37.3809 54.4977 37.1371 53.7065C36.8933 52.9154 36.3451 52.2535 35.6133 51.8665L30.6533 49.2444V43.3074C32.8503 42.7396 34.851 41.5838 36.4405 39.9643L41.5847 42.9328L41.3755 48.539C41.3602 48.9487 41.4257 49.3574 41.5682 49.7418C41.7108 50.1262 41.9277 50.4788 42.2066 50.7794C42.4854 51.08 42.8207 51.3227 43.1934 51.4937C43.566 51.6647 43.9687 51.7606 44.3784 51.7759C44.7881 51.7913 45.1969 51.7258 45.5813 51.5833C45.9657 51.4407 46.3182 51.2238 46.6188 50.9449C46.9194 50.6661 47.1621 50.3308 47.3331 49.9581C47.5041 49.5855 47.6 49.1828 47.6154 48.7731L47.6997 46.4632L50.2999 47.9646C50.655 48.1728 51.0478 48.3087 51.4557 48.3645C51.8635 48.4202 52.2784 48.3948 52.6764 48.2896C53.0744 48.1843 53.4476 48.0014 53.7746 47.7514C54.1016 47.5013 54.3759 47.1891 54.5818 46.8325C54.7876 46.476 54.9209 46.0823 54.974 45.6741C55.027 45.2659 54.9988 44.8512 54.891 44.4539C54.7831 44.0566 54.5977 43.6846 54.3455 43.3593C54.0933 43.0339 53.7792 42.7617 53.4213 42.5582L50.8243 41.0599L52.7783 39.8301C53.4795 39.3896 53.977 38.6887 54.1614 37.8814C54.3458 37.0742 54.202 36.2267 53.7616 35.5255C53.3211 34.8243 52.6202 34.3268 51.813 34.1424C51.0057 33.958 50.1583 34.1018 49.4571 34.5423L44.7062 37.5264L39.5651 34.561C40.1735 32.3727 40.1735 30.0599 39.5651 27.8717L44.7062 24.9031L49.4571 27.8873C50.1583 28.3277 51.0057 28.4715 51.813 28.2871C52.6202 28.1027 53.3211 27.6052 53.7616 26.904C54.202 26.2028 54.3458 25.3554 54.1614 24.5481C53.977 23.7409 53.4795 23.0399 52.7783 22.5995L50.8211 21.3728L53.4213 19.8713C53.7792 19.6679 54.0933 19.3956 54.3455 19.0703C54.5977 18.7449 54.7831 18.3729 54.891 17.9756C54.9988 17.5783 55.027 17.1637 54.974 16.7554C54.9209 16.3472 54.7876 15.9535 54.5818 15.597C54.3759 15.2405 54.1016 14.9282 53.7746 14.6782C53.4476 14.4281 53.0744 14.2452 52.6764 14.14C52.2784 14.0348 51.8635 14.0093 51.4557 14.0651C51.0478 14.1208 50.655 14.2567 50.2999 14.4649L47.6997 15.9632L47.6154 13.6565C47.6 13.2468 47.5041 12.8441 47.3331 12.4714C47.1621 12.0988 46.9194 11.7635 46.6188 11.4846C46.3182 11.2058 45.9657 10.9889 45.5813 10.8463C45.1969 10.7037 44.7881 10.6382 44.3784 10.6536C43.9687 10.669 43.566 10.7649 43.1934 10.9359C42.8207 11.1069 42.4854 11.3496 42.2066 11.6502C41.9277 11.9508 41.7108 12.3033 41.5682 12.6877C41.4257 13.0721 41.3602 13.4809 41.3755 13.8906L41.5847 19.4967L36.4405 22.4653C34.851 20.8457 32.8503 19.6899 30.6533 19.1222V13.1851L35.6133 10.5631C36.3451 10.1761 36.8933 9.51415 37.1371 8.723C37.3809 7.93184 37.3004 7.07624 36.9134 6.3444C36.5264 5.61257 35.8645 5.06445 35.0733 4.82064C34.2822 4.57682 33.4266 4.65728 32.6947 5.04431L30.6533 6.12434V3.12148Z" fill="#7177F8"/>
</svg>
