<svg width="56" height="77" viewBox="0 0 56 77" fill="none" xmlns="http://www.w3.org/2000/svg">
<path fill-rule="evenodd" clip-rule="evenodd" d="M41.328 54.4397L40.8613 55.6045C32.5137 58.3878 23.4863 58.3878 15.1387 55.6045L14.672 54.4397C14.2287 53.3682 14.0047 52.8277 13.6173 52.3339C13.2347 51.8354 12.5627 51.3322 11.2187 50.3305C6.51277 46.8131 3.03519 41.9061 1.27884 36.3052C-0.477501 30.7043 -0.423504 24.6935 1.43318 19.125C3.28987 13.5564 6.85505 8.71251 11.6234 5.27987C16.3917 1.84723 22.1213 0 28 0C33.8787 0 39.6083 1.84723 44.3766 5.27987C49.145 8.71251 52.7101 13.5564 54.5668 19.125C56.4235 24.6935 56.4775 30.7043 54.7212 36.3052C52.9648 41.9061 49.4872 46.8131 44.7813 50.3305C43.4373 51.3322 42.7653 51.8354 42.3827 52.3339C42 52.8324 41.776 53.3635 41.328 54.4397ZM17.9667 65.9939C18.3711 68.4538 18.6013 70.9355 18.6573 73.4389C18.662 73.7696 18.7571 74.0928 18.9323 74.3736C19.1074 74.6544 19.3561 74.8821 19.6513 75.0322C22.2435 76.3263 25.1018 77 28 77C30.8982 77 33.7565 76.3263 36.3487 75.0322C36.6439 74.8821 36.8926 74.6544 37.0677 74.3736C37.2429 74.0928 37.338 73.7696 37.3427 73.4389C37.3987 70.9355 37.6289 68.4538 38.0333 65.9939C31.4134 67.3495 24.5866 67.3495 17.9667 65.9939Z" fill="white"/>
</svg>
