<svg width="163" height="178" viewBox="0 0 163 178" fill="none" xmlns="http://www.w3.org/2000/svg">
<rect y="15" width="163" height="163" rx="40" fill="#3F3F3F"/>
<path d="M111.014 117.25C110.867 118.422 110.379 119.423 109.549 120.253C108.719 121.034 107.938 121.889 107.205 122.816C106.326 123.793 105.594 124.623 105.008 125.307C104.471 125.941 103.982 126.576 103.543 127.211C103.104 127.846 102.688 128.529 102.298 129.262C101.956 129.994 101.565 130.922 101.126 132.045C101.028 132.24 100.906 132.387 100.76 132.484C100.662 132.582 100.613 132.802 100.613 133.144C100.516 134.218 99.8809 135.023 98.709 135.561C97.5859 136.098 96.1943 136.464 94.5342 136.659C92.9229 136.903 91.1895 137.025 89.334 137.025C87.5273 137.025 85.916 137.025 84.5 137.025C83.5234 137.025 82.498 137.001 81.4238 136.952C80.3984 136.952 79.3975 136.952 78.4209 136.952C77.4443 136.952 76.5654 137.05 75.7842 137.245C75.0518 137.44 74.3926 137.538 73.8066 137.538C72.5371 137.538 71.3652 137.44 70.291 137.245C69.2168 137.05 68.1914 136.952 67.2148 136.952C66.1895 137.001 65.2617 137.123 64.4316 137.318C63.6504 137.514 62.8691 137.709 62.0879 137.904C61.3066 138.148 60.5254 138.344 59.7441 138.49C59.0117 138.686 58.2061 138.783 57.3271 138.783C56.9854 138.783 56.6924 138.734 56.4482 138.637C56.2041 138.539 56.082 138.222 56.082 137.685C56.082 137.099 56.375 136.708 56.9609 136.513C57.5957 136.317 58.2793 136.146 59.0117 136C59.793 135.854 60.4766 135.658 61.0625 135.414C61.6973 135.17 62.0146 134.73 62.0146 134.096V133.363C62.0146 133.119 62.0146 132.851 62.0146 132.558C62.0635 132.265 62.1611 131.923 62.3076 131.532C62.3564 131.386 62.5518 131.215 62.8936 131.02C63.2354 130.775 63.4062 130.507 63.4062 130.214C63.4062 130.116 63.3818 129.994 63.333 129.848C63.333 129.701 63.333 129.579 63.333 129.481C63.333 129.433 63.3574 129.384 63.4062 129.335C63.8945 128.896 64.2119 128.041 64.3584 126.771C64.5537 125.453 64.6758 123.988 64.7246 122.377C64.7734 120.766 64.7979 119.13 64.7979 117.47C64.7979 115.761 64.8711 114.247 65.0176 112.929C65.1641 111.854 65.4326 110.78 65.8232 109.706C66.2139 108.632 66.5068 107.533 66.7021 106.41C66.7021 106.215 66.7266 105.751 66.7754 105.019C66.873 104.286 66.9463 103.505 66.9951 102.675C67.0439 101.845 67.0928 101.039 67.1416 100.258C67.1904 99.4277 67.2148 98.8418 67.2148 98.5C67.2148 98.207 67.0928 98.0117 66.8486 97.9141C66.6533 97.7676 66.4336 97.6943 66.1895 97.6943C65.6523 97.6943 65.042 97.8896 64.3584 98.2803C63.7236 98.6709 63.0645 99.1104 62.3809 99.5986C61.6973 100.087 61.0137 100.526 60.3301 100.917C59.6465 101.308 59.0361 101.503 58.499 101.503C58.1084 101.503 57.8887 101.381 57.8398 101.137C57.791 100.893 57.7666 100.648 57.7666 100.404C57.7666 99.8184 57.9863 99.3057 58.4258 98.8662C58.8652 98.3779 59.4023 97.9141 60.0371 97.4746C60.6719 97.0352 61.3311 96.6201 62.0146 96.2295C62.7471 95.79 63.3818 95.3506 63.9189 94.9111C64.1631 94.667 64.2852 94.4229 64.2852 94.1787C64.2852 93.9346 64.4072 93.8125 64.6514 93.8125C64.749 93.8125 64.8711 93.8369 65.0176 93.8857C65.1641 93.8857 65.2861 93.8857 65.3838 93.8857C65.6279 93.8857 65.7744 93.7148 65.8232 93.373C65.8721 92.9824 65.9941 92.7383 66.1895 92.6406C66.6289 92.4941 66.9951 92.3721 67.2881 92.2744C67.5811 92.1279 67.8252 91.8594 68.0205 91.4688C68.2158 91.0293 68.3623 90.3701 68.46 89.4912C68.5576 88.6123 68.6064 87.3184 68.6064 85.6094C68.6064 83.9492 68.8018 82.6553 69.1924 81.7275C69.6318 80.751 69.9004 79.8477 69.998 79.0176C70.0957 78.2363 70.1689 77.3818 70.2178 76.4541C70.2666 75.5264 70.291 74.5986 70.291 73.6709C70.3398 72.6943 70.3643 71.791 70.3643 70.9609C70.4131 70.082 70.4619 69.3008 70.5107 68.6172C70.6084 67.5918 70.7549 66.5908 70.9502 65.6143C71.1455 64.6377 71.2432 63.8076 71.2432 63.124C71.2432 62.1475 70.9258 61.5127 70.291 61.2197C69.6562 60.9268 69.0215 60.7803 68.3867 60.7803C67.8496 60.7803 67.2637 60.8291 66.6289 60.9268C66.043 60.9756 65.4814 61 64.9443 61C64.4072 61 63.8945 60.9268 63.4062 60.7803C62.9668 60.6338 62.6006 60.3164 62.3076 59.8281C62.5518 59.0469 63.0156 58.4854 63.6992 58.1436C64.4316 57.8018 65.2617 57.582 66.1895 57.4844C67.166 57.3379 68.167 57.2891 69.1924 57.3379C70.2666 57.3379 71.2432 57.2891 72.1221 57.1914C73.8799 57.0449 75.6865 56.9473 77.542 56.8984C79.3975 56.8496 81.2529 56.752 83.1084 56.6055C84.2314 56.5078 85.3301 56.3125 86.4043 56.0195C87.5273 55.6777 88.6992 55.5068 89.9199 55.5068C90.4082 55.5068 90.8721 55.5312 91.3115 55.5801C91.7998 55.5801 92.3125 55.5801 92.8496 55.5801C94.3633 55.5801 95.7305 55.3848 96.9512 54.9941C98.2207 54.6035 99.6611 54.4082 101.272 54.4082C101.614 54.4082 101.834 54.4326 101.932 54.4814C102.078 54.5303 102.176 54.6035 102.225 54.7012C102.273 54.75 102.322 54.7988 102.371 54.8477C102.42 54.8965 102.518 54.9209 102.664 54.9209C102.762 54.9209 102.811 54.8965 102.811 54.8477C102.859 54.7988 102.908 54.75 102.957 54.7012C103.006 54.6035 103.079 54.5303 103.177 54.4814C103.323 54.4326 103.592 54.4082 103.982 54.4082C104.373 54.4082 104.739 54.4326 105.081 54.4814C105.472 54.4814 105.862 54.4814 106.253 54.4814C106.692 54.4814 107.083 54.4082 107.425 54.2617C107.767 54.1152 108.084 53.9688 108.377 53.8223C108.719 53.6758 109.061 53.5293 109.402 53.3828C109.793 53.2363 110.257 53.1631 110.794 53.1631C111.771 53.1631 112.454 53.4072 112.845 53.8955C113.284 54.3838 113.504 54.9941 113.504 55.7266C113.504 56.459 113.357 57.2891 113.064 58.2168C112.771 59.0957 112.43 59.999 112.039 60.9268C111.648 61.8057 111.233 62.6602 110.794 63.4902C110.403 64.2715 110.086 64.9062 109.842 65.3945C109.646 65.7852 109.476 66.249 109.329 66.7861C109.231 67.2744 109.061 67.6895 108.816 68.0312C108.572 68.3242 108.279 68.6172 107.938 68.9102C107.596 69.1543 107.352 69.4229 107.205 69.7158C107.059 69.8623 106.937 70.1553 106.839 70.5947C106.79 70.9854 106.717 71.4004 106.619 71.8398C106.521 72.2305 106.375 72.5967 106.18 72.9385C105.984 73.2314 105.716 73.3779 105.374 73.3779C104.935 73.3779 104.593 73.2314 104.349 72.9385C104.104 72.5967 103.982 72.2061 103.982 71.7666C103.982 70.79 104.153 69.7158 104.495 68.5439C104.837 67.3232 105.008 66.0049 105.008 64.5889C105.008 63.7588 104.886 62.9531 104.642 62.1719C104.446 61.3418 103.982 60.9268 103.25 60.9268C102.664 60.9268 101.907 61.0244 100.979 61.2197C100.052 61.415 99.3926 61.5127 99.002 61.5127C98.0742 61.5127 96.7803 61.4395 95.1201 61.293C93.5088 61.1465 91.8486 61.0732 90.1396 61.0732C88.5771 61.0732 87.2588 61.1953 86.1846 61.4395C85.1104 61.6348 84.207 62.1475 83.4746 62.9775C82.791 63.7588 82.2295 64.9551 81.79 66.5664C81.3994 68.1289 81.1064 70.2773 80.9111 73.0117V73.8906C80.96 74.5742 80.7891 75.6484 80.3984 77.1133C80.0078 78.5293 79.8125 80.0918 79.8125 81.8008V82.8994C79.8125 83.3877 79.7148 83.8027 79.5195 84.1445C79.373 84.4375 79.2998 84.5596 79.2998 84.5107C79.2998 84.7549 79.373 85.1211 79.5195 85.6094C79.7148 86.0488 79.8125 86.5859 79.8125 87.2207C79.8125 87.3184 79.6904 87.5625 79.4463 87.9531C79.251 88.2949 79.1533 88.6367 79.1533 88.9785C79.1533 89.2227 79.5439 89.4424 80.3252 89.6377C81.1553 89.833 82.1318 90.0039 83.2549 90.1504C84.3779 90.248 85.5254 90.3457 86.6973 90.4434C87.8691 90.4922 88.8457 90.5166 89.627 90.5166C90.3105 90.5166 91.0186 90.4189 91.751 90.2236C92.5322 90.0283 93.4355 89.9307 94.4609 89.9307C94.9492 89.9307 95.4131 89.9551 95.8525 90.0039C96.3408 90.0527 96.7803 90.0771 97.1709 90.0771C97.4639 90.0771 97.6836 90.0527 97.8301 90.0039C99.1973 89.6621 100.223 89.1982 100.906 88.6123C101.639 88.0264 102.298 87.4404 102.884 86.8545C103.47 86.2686 104.129 85.7559 104.861 85.3164C105.643 84.8281 106.766 84.5352 108.23 84.4375C108.426 84.6816 108.523 84.9746 108.523 85.3164C108.523 85.8535 108.279 86.3662 107.791 86.8545C107.352 87.3428 106.961 87.8311 106.619 88.3193C106.521 88.417 106.424 88.6855 106.326 89.125C106.277 89.5645 106.18 89.8574 106.033 90.0039C105.789 90.248 105.447 90.3457 105.008 90.2969C104.568 90.1992 104.202 90.2725 103.909 90.5166C103.665 90.6143 103.47 90.7852 103.323 91.0293C103.226 91.2246 103.055 91.4199 102.811 91.6152C101.297 92.4941 100.125 93.3242 99.2949 94.1055C98.4648 94.8867 97.7324 95.5703 97.0977 96.1562C96.4629 96.6934 95.8037 97.1328 95.1201 97.4746C94.4365 97.7676 93.5088 97.9141 92.3369 97.9141C90.1396 97.9141 87.9424 97.7188 85.7451 97.3281C83.5967 96.9375 81.5947 96.7422 79.7393 96.7422C78.5186 96.7422 77.7373 97.1572 77.3955 97.9873C77.0537 98.7686 76.8828 99.7207 76.8828 100.844C76.8828 101.234 76.9072 101.601 76.9561 101.942C77.0049 102.235 77.0293 102.504 77.0293 102.748C77.0293 102.992 76.9805 103.334 76.8828 103.773C76.7852 104.164 76.6631 104.604 76.5166 105.092C76.4189 105.531 76.3213 105.971 76.2236 106.41C76.126 106.801 76.0527 107.143 76.0039 107.436C75.9062 108.266 75.8086 109.071 75.7109 109.853C75.6133 110.634 75.4912 111.537 75.3447 112.562C75.2471 113.539 75.1006 114.662 74.9053 115.932C74.7588 117.201 74.5879 118.739 74.3926 120.546C74.2461 121.962 74.0752 123.134 73.8799 124.062C73.6846 124.989 73.4404 125.868 73.1475 126.698C72.8545 127.479 72.4883 128.285 72.0488 129.115C71.6582 129.896 71.1455 130.873 70.5107 132.045C70.6572 132.045 70.7793 132.069 70.877 132.118C71.0234 132.118 71.1455 132.118 71.2432 132.118C71.8779 132.118 72.5127 132.021 73.1475 131.825C73.8311 131.63 74.7832 131.361 76.0039 131.02C76.2969 130.824 76.5898 130.629 76.8828 130.434C77.127 130.287 77.3711 130.165 77.6152 130.067C77.8594 129.921 78.1035 129.848 78.3477 129.848C78.4941 129.848 78.7139 129.872 79.0068 129.921C79.2998 129.97 79.5684 129.994 79.8125 129.994C80.1055 129.994 80.3008 129.945 80.3984 129.848C80.5449 129.701 80.7646 129.628 81.0576 129.628C81.6436 129.628 82.791 129.726 84.5 129.921C86.209 130.067 88.2354 130.141 90.5791 130.141C91.5068 130.141 92.3857 130.116 93.2158 130.067C94.0947 129.97 94.9248 129.726 95.7061 129.335C95.8037 129.237 95.9502 129.066 96.1455 128.822C96.3896 128.578 96.6338 128.31 96.8779 128.017C97.1221 127.724 97.3662 127.455 97.6104 127.211C97.9033 126.967 98.1719 126.771 98.416 126.625C98.709 126.43 99.0752 126.356 99.5146 126.405C99.9541 126.405 100.32 126.283 100.613 126.039C101.004 125.746 101.346 125.355 101.639 124.867C101.932 124.33 102.322 123.817 102.811 123.329L106.619 119.521C106.814 119.325 107.01 119.105 107.205 118.861C107.4 118.568 107.62 118.3 107.864 118.056C108.157 117.812 108.499 117.616 108.89 117.47C109.28 117.323 109.769 117.25 110.354 117.25H111.014Z" fill="white"/>
</svg>
