<svg width="549" height="173" viewBox="0 0 549 173" fill="none" xmlns="http://www.w3.org/2000/svg">
<rect y="10" width="549" height="163" rx="40" fill="#3F3F3F"/>
<path d="M201.014 117.25C200.867 118.422 200.379 119.423 199.549 120.253C198.719 121.034 197.938 121.889 197.205 122.816C196.326 123.793 195.594 124.623 195.008 125.307C194.471 125.941 193.982 126.576 193.543 127.211C193.104 127.846 192.688 128.529 192.298 129.262C191.956 129.994 191.565 130.922 191.126 132.045C191.028 132.24 190.906 132.387 190.76 132.484C190.662 132.582 190.613 132.802 190.613 133.144C190.516 134.218 189.881 135.023 188.709 135.561C187.586 136.098 186.194 136.464 184.534 136.659C182.923 136.903 181.189 137.025 179.334 137.025C177.527 137.025 175.916 137.025 174.5 137.025C173.523 137.025 172.498 137.001 171.424 136.952C170.398 136.952 169.397 136.952 168.421 136.952C167.444 136.952 166.565 137.05 165.784 137.245C165.052 137.44 164.393 137.538 163.807 137.538C162.537 137.538 161.365 137.44 160.291 137.245C159.217 137.05 158.191 136.952 157.215 136.952C156.189 137.001 155.262 137.123 154.432 137.318C153.65 137.514 152.869 137.709 152.088 137.904C151.307 138.148 150.525 138.344 149.744 138.49C149.012 138.686 148.206 138.783 147.327 138.783C146.985 138.783 146.692 138.734 146.448 138.637C146.204 138.539 146.082 138.222 146.082 137.685C146.082 137.099 146.375 136.708 146.961 136.513C147.596 136.317 148.279 136.146 149.012 136C149.793 135.854 150.477 135.658 151.062 135.414C151.697 135.17 152.015 134.73 152.015 134.096V133.363C152.015 133.119 152.015 132.851 152.015 132.558C152.063 132.265 152.161 131.923 152.308 131.532C152.356 131.386 152.552 131.215 152.894 131.02C153.235 130.775 153.406 130.507 153.406 130.214C153.406 130.116 153.382 129.994 153.333 129.848C153.333 129.701 153.333 129.579 153.333 129.481C153.333 129.433 153.357 129.384 153.406 129.335C153.895 128.896 154.212 128.041 154.358 126.771C154.554 125.453 154.676 123.988 154.725 122.377C154.773 120.766 154.798 119.13 154.798 117.47C154.798 115.761 154.871 114.247 155.018 112.929C155.164 111.854 155.433 110.78 155.823 109.706C156.214 108.632 156.507 107.533 156.702 106.41C156.702 106.215 156.727 105.751 156.775 105.019C156.873 104.286 156.946 103.505 156.995 102.675C157.044 101.845 157.093 101.039 157.142 100.258C157.19 99.4277 157.215 98.8418 157.215 98.5C157.215 98.207 157.093 98.0117 156.849 97.9141C156.653 97.7676 156.434 97.6943 156.189 97.6943C155.652 97.6943 155.042 97.8896 154.358 98.2803C153.724 98.6709 153.064 99.1104 152.381 99.5986C151.697 100.087 151.014 100.526 150.33 100.917C149.646 101.308 149.036 101.503 148.499 101.503C148.108 101.503 147.889 101.381 147.84 101.137C147.791 100.893 147.767 100.648 147.767 100.404C147.767 99.8184 147.986 99.3057 148.426 98.8662C148.865 98.3779 149.402 97.9141 150.037 97.4746C150.672 97.0352 151.331 96.6201 152.015 96.2295C152.747 95.79 153.382 95.3506 153.919 94.9111C154.163 94.667 154.285 94.4229 154.285 94.1787C154.285 93.9346 154.407 93.8125 154.651 93.8125C154.749 93.8125 154.871 93.8369 155.018 93.8857C155.164 93.8857 155.286 93.8857 155.384 93.8857C155.628 93.8857 155.774 93.7148 155.823 93.373C155.872 92.9824 155.994 92.7383 156.189 92.6406C156.629 92.4941 156.995 92.3721 157.288 92.2744C157.581 92.1279 157.825 91.8594 158.021 91.4688C158.216 91.0293 158.362 90.3701 158.46 89.4912C158.558 88.6123 158.606 87.3184 158.606 85.6094C158.606 83.9492 158.802 82.6553 159.192 81.7275C159.632 80.751 159.9 79.8477 159.998 79.0176C160.096 78.2363 160.169 77.3818 160.218 76.4541C160.267 75.5264 160.291 74.5986 160.291 73.6709C160.34 72.6943 160.364 71.791 160.364 70.9609C160.413 70.082 160.462 69.3008 160.511 68.6172C160.608 67.5918 160.755 66.5908 160.95 65.6143C161.146 64.6377 161.243 63.8076 161.243 63.124C161.243 62.1475 160.926 61.5127 160.291 61.2197C159.656 60.9268 159.021 60.7803 158.387 60.7803C157.85 60.7803 157.264 60.8291 156.629 60.9268C156.043 60.9756 155.481 61 154.944 61C154.407 61 153.895 60.9268 153.406 60.7803C152.967 60.6338 152.601 60.3164 152.308 59.8281C152.552 59.0469 153.016 58.4854 153.699 58.1436C154.432 57.8018 155.262 57.582 156.189 57.4844C157.166 57.3379 158.167 57.2891 159.192 57.3379C160.267 57.3379 161.243 57.2891 162.122 57.1914C163.88 57.0449 165.687 56.9473 167.542 56.8984C169.397 56.8496 171.253 56.752 173.108 56.6055C174.231 56.5078 175.33 56.3125 176.404 56.0195C177.527 55.6777 178.699 55.5068 179.92 55.5068C180.408 55.5068 180.872 55.5312 181.312 55.5801C181.8 55.5801 182.312 55.5801 182.85 55.5801C184.363 55.5801 185.73 55.3848 186.951 54.9941C188.221 54.6035 189.661 54.4082 191.272 54.4082C191.614 54.4082 191.834 54.4326 191.932 54.4814C192.078 54.5303 192.176 54.6035 192.225 54.7012C192.273 54.75 192.322 54.7988 192.371 54.8477C192.42 54.8965 192.518 54.9209 192.664 54.9209C192.762 54.9209 192.811 54.8965 192.811 54.8477C192.859 54.7988 192.908 54.75 192.957 54.7012C193.006 54.6035 193.079 54.5303 193.177 54.4814C193.323 54.4326 193.592 54.4082 193.982 54.4082C194.373 54.4082 194.739 54.4326 195.081 54.4814C195.472 54.4814 195.862 54.4814 196.253 54.4814C196.692 54.4814 197.083 54.4082 197.425 54.2617C197.767 54.1152 198.084 53.9688 198.377 53.8223C198.719 53.6758 199.061 53.5293 199.402 53.3828C199.793 53.2363 200.257 53.1631 200.794 53.1631C201.771 53.1631 202.454 53.4072 202.845 53.8955C203.284 54.3838 203.504 54.9941 203.504 55.7266C203.504 56.459 203.357 57.2891 203.064 58.2168C202.771 59.0957 202.43 59.999 202.039 60.9268C201.648 61.8057 201.233 62.6602 200.794 63.4902C200.403 64.2715 200.086 64.9062 199.842 65.3945C199.646 65.7852 199.476 66.249 199.329 66.7861C199.231 67.2744 199.061 67.6895 198.816 68.0312C198.572 68.3242 198.279 68.6172 197.938 68.9102C197.596 69.1543 197.352 69.4229 197.205 69.7158C197.059 69.8623 196.937 70.1553 196.839 70.5947C196.79 70.9854 196.717 71.4004 196.619 71.8398C196.521 72.2305 196.375 72.5967 196.18 72.9385C195.984 73.2314 195.716 73.3779 195.374 73.3779C194.935 73.3779 194.593 73.2314 194.349 72.9385C194.104 72.5967 193.982 72.2061 193.982 71.7666C193.982 70.79 194.153 69.7158 194.495 68.5439C194.837 67.3232 195.008 66.0049 195.008 64.5889C195.008 63.7588 194.886 62.9531 194.642 62.1719C194.446 61.3418 193.982 60.9268 193.25 60.9268C192.664 60.9268 191.907 61.0244 190.979 61.2197C190.052 61.415 189.393 61.5127 189.002 61.5127C188.074 61.5127 186.78 61.4395 185.12 61.293C183.509 61.1465 181.849 61.0732 180.14 61.0732C178.577 61.0732 177.259 61.1953 176.185 61.4395C175.11 61.6348 174.207 62.1475 173.475 62.9775C172.791 63.7588 172.229 64.9551 171.79 66.5664C171.399 68.1289 171.106 70.2773 170.911 73.0117V73.8906C170.96 74.5742 170.789 75.6484 170.398 77.1133C170.008 78.5293 169.812 80.0918 169.812 81.8008V82.8994C169.812 83.3877 169.715 83.8027 169.52 84.1445C169.373 84.4375 169.3 84.5596 169.3 84.5107C169.3 84.7549 169.373 85.1211 169.52 85.6094C169.715 86.0488 169.812 86.5859 169.812 87.2207C169.812 87.3184 169.69 87.5625 169.446 87.9531C169.251 88.2949 169.153 88.6367 169.153 88.9785C169.153 89.2227 169.544 89.4424 170.325 89.6377C171.155 89.833 172.132 90.0039 173.255 90.1504C174.378 90.248 175.525 90.3457 176.697 90.4434C177.869 90.4922 178.846 90.5166 179.627 90.5166C180.311 90.5166 181.019 90.4189 181.751 90.2236C182.532 90.0283 183.436 89.9307 184.461 89.9307C184.949 89.9307 185.413 89.9551 185.853 90.0039C186.341 90.0527 186.78 90.0771 187.171 90.0771C187.464 90.0771 187.684 90.0527 187.83 90.0039C189.197 89.6621 190.223 89.1982 190.906 88.6123C191.639 88.0264 192.298 87.4404 192.884 86.8545C193.47 86.2686 194.129 85.7559 194.861 85.3164C195.643 84.8281 196.766 84.5352 198.23 84.4375C198.426 84.6816 198.523 84.9746 198.523 85.3164C198.523 85.8535 198.279 86.3662 197.791 86.8545C197.352 87.3428 196.961 87.8311 196.619 88.3193C196.521 88.417 196.424 88.6855 196.326 89.125C196.277 89.5645 196.18 89.8574 196.033 90.0039C195.789 90.248 195.447 90.3457 195.008 90.2969C194.568 90.1992 194.202 90.2725 193.909 90.5166C193.665 90.6143 193.47 90.7852 193.323 91.0293C193.226 91.2246 193.055 91.4199 192.811 91.6152C191.297 92.4941 190.125 93.3242 189.295 94.1055C188.465 94.8867 187.732 95.5703 187.098 96.1562C186.463 96.6934 185.804 97.1328 185.12 97.4746C184.437 97.7676 183.509 97.9141 182.337 97.9141C180.14 97.9141 177.942 97.7188 175.745 97.3281C173.597 96.9375 171.595 96.7422 169.739 96.7422C168.519 96.7422 167.737 97.1572 167.396 97.9873C167.054 98.7686 166.883 99.7207 166.883 100.844C166.883 101.234 166.907 101.601 166.956 101.942C167.005 102.235 167.029 102.504 167.029 102.748C167.029 102.992 166.98 103.334 166.883 103.773C166.785 104.164 166.663 104.604 166.517 105.092C166.419 105.531 166.321 105.971 166.224 106.41C166.126 106.801 166.053 107.143 166.004 107.436C165.906 108.266 165.809 109.071 165.711 109.853C165.613 110.634 165.491 111.537 165.345 112.562C165.247 113.539 165.101 114.662 164.905 115.932C164.759 117.201 164.588 118.739 164.393 120.546C164.246 121.962 164.075 123.134 163.88 124.062C163.685 124.989 163.44 125.868 163.147 126.698C162.854 127.479 162.488 128.285 162.049 129.115C161.658 129.896 161.146 130.873 160.511 132.045C160.657 132.045 160.779 132.069 160.877 132.118C161.023 132.118 161.146 132.118 161.243 132.118C161.878 132.118 162.513 132.021 163.147 131.825C163.831 131.63 164.783 131.361 166.004 131.02C166.297 130.824 166.59 130.629 166.883 130.434C167.127 130.287 167.371 130.165 167.615 130.067C167.859 129.921 168.104 129.848 168.348 129.848C168.494 129.848 168.714 129.872 169.007 129.921C169.3 129.97 169.568 129.994 169.812 129.994C170.105 129.994 170.301 129.945 170.398 129.848C170.545 129.701 170.765 129.628 171.058 129.628C171.644 129.628 172.791 129.726 174.5 129.921C176.209 130.067 178.235 130.141 180.579 130.141C181.507 130.141 182.386 130.116 183.216 130.067C184.095 129.97 184.925 129.726 185.706 129.335C185.804 129.237 185.95 129.066 186.146 128.822C186.39 128.578 186.634 128.31 186.878 128.017C187.122 127.724 187.366 127.455 187.61 127.211C187.903 126.967 188.172 126.771 188.416 126.625C188.709 126.43 189.075 126.356 189.515 126.405C189.954 126.405 190.32 126.283 190.613 126.039C191.004 125.746 191.346 125.355 191.639 124.867C191.932 124.33 192.322 123.817 192.811 123.329L196.619 119.521C196.814 119.325 197.01 119.105 197.205 118.861C197.4 118.568 197.62 118.3 197.864 118.056C198.157 117.812 198.499 117.616 198.89 117.47C199.28 117.323 199.769 117.25 200.354 117.25H201.014ZM295.496 51.4785C295.643 51.8691 295.716 52.1865 295.716 52.4307C295.716 52.9189 295.496 53.2363 295.057 53.3828C294.666 53.5293 294.153 53.627 293.519 53.6758C292.884 53.6758 292.2 53.7002 291.468 53.749C290.784 53.7979 290.149 53.9688 289.563 54.2617C288.44 54.7988 287.317 55.6533 286.194 56.8252C285.071 57.9971 284.021 59.2422 283.045 60.5605C282.117 61.8301 281.287 63.0264 280.555 64.1494C279.871 65.2236 279.383 65.9316 279.09 66.2734C278.309 67.25 277.405 68.1533 276.38 68.9834C275.403 69.8135 274.5 70.7168 273.67 71.6934C272.742 72.7188 271.863 73.8174 271.033 74.9893C270.252 76.1123 269.495 77.04 268.763 77.7725C268.567 77.9678 267.884 78.5293 266.712 79.457C265.589 80.3359 264.368 81.3857 263.05 82.6064C261.78 83.7783 260.608 85.0234 259.534 86.3418C258.509 87.6113 257.996 88.7344 257.996 89.7109C257.996 90.248 258.289 91.3467 258.875 93.0068C259.51 94.667 260.242 96.5225 261.072 98.5732C261.121 98.6709 261.219 98.7441 261.365 98.793C261.561 98.8418 261.658 98.9883 261.658 99.2324C261.658 99.3301 261.634 99.4521 261.585 99.5986C261.585 99.6963 261.585 99.7939 261.585 99.8916C261.585 100.087 261.683 100.307 261.878 100.551C262.073 100.795 262.293 101.039 262.537 101.283C262.83 101.479 263.074 101.674 263.27 101.869C263.514 102.064 263.685 102.235 263.782 102.382C263.978 102.772 264.051 103.285 264.002 103.92C264.002 104.506 264.124 105.092 264.368 105.678C264.417 105.922 264.612 106.142 264.954 106.337C265.296 106.532 265.467 106.728 265.467 106.923C265.467 107.069 265.442 107.24 265.394 107.436C265.394 107.631 265.394 107.802 265.394 107.948C265.394 108.192 265.442 108.363 265.54 108.461C265.687 108.559 265.833 108.656 265.979 108.754C266.126 108.852 266.248 108.974 266.346 109.12C266.492 109.218 266.565 109.389 266.565 109.633C266.565 109.73 266.541 109.853 266.492 109.999C266.492 110.146 266.492 110.268 266.492 110.365C266.492 110.512 266.688 110.78 267.078 111.171C267.469 111.513 267.664 111.757 267.664 111.903C267.664 112.001 267.64 112.123 267.591 112.27C267.591 112.416 267.591 112.538 267.591 112.636V112.709C268.079 113.148 268.567 113.808 269.056 114.687C269.544 115.565 269.983 116.518 270.374 117.543C270.813 118.52 271.204 119.472 271.546 120.399C271.937 121.327 272.278 122.06 272.571 122.597C273.694 124.647 274.891 126.405 276.16 127.87C277.479 129.286 278.772 129.994 280.042 129.994C281.165 129.994 282.117 129.921 282.898 129.774C283.68 129.579 284.437 129.384 285.169 129.188C285.901 128.944 286.658 128.749 287.439 128.603C288.27 128.407 289.246 128.31 290.369 128.31C291.541 128.31 292.542 128.578 293.372 129.115C293.372 129.701 293.201 130.189 292.859 130.58C292.518 130.922 292.078 131.19 291.541 131.386C291.053 131.532 290.467 131.654 289.783 131.752C289.148 131.801 288.514 131.85 287.879 131.898C287.83 131.898 287.781 131.996 287.732 132.191C287.732 132.338 287.635 132.411 287.439 132.411C287.244 132.411 287.171 132.338 287.22 132.191C287.269 131.996 287.171 131.898 286.927 131.898C286.829 131.898 286.512 131.972 285.975 132.118C285.438 132.216 284.974 132.313 284.583 132.411C284.437 132.509 284.144 132.729 283.704 133.07C283.313 133.363 283.069 133.51 282.972 133.51C282.63 133.607 282.117 133.656 281.434 133.656C280.75 133.607 280.042 133.607 279.31 133.656C278.577 133.705 277.918 133.803 277.332 133.949C276.795 134.096 276.478 134.34 276.38 134.682C276.38 134.779 276.38 134.901 276.38 135.048C276.429 135.194 276.453 135.316 276.453 135.414C276.453 135.463 276.38 135.561 276.233 135.707C276.087 135.854 275.892 136 275.647 136.146C275.452 136.342 275.232 136.488 274.988 136.586C274.793 136.732 274.622 136.806 274.476 136.806C274.085 136.806 273.646 136.708 273.157 136.513C272.669 136.366 272.156 136.195 271.619 136C271.131 135.805 270.594 135.634 270.008 135.487C269.471 135.292 268.934 135.194 268.396 135.194C267.42 135.194 266.492 135.316 265.613 135.561C264.734 135.756 263.855 135.976 262.977 136.22C262.146 136.513 261.341 136.757 260.56 136.952C259.827 137.196 259.095 137.318 258.362 137.318C257.825 137.318 257.337 137.196 256.897 136.952C256.507 136.708 256.312 136.293 256.312 135.707C256.312 134.926 256.507 134.364 256.897 134.022C257.288 133.632 257.776 133.388 258.362 133.29C258.997 133.144 259.656 133.095 260.34 133.144C261.072 133.144 261.731 133.144 262.317 133.144C262.952 133.095 263.465 132.997 263.855 132.851C264.246 132.704 264.441 132.387 264.441 131.898C264.441 131.605 264.344 131.337 264.148 131.093C263.953 130.8 263.733 130.531 263.489 130.287C263.294 129.994 263.099 129.726 262.903 129.481C262.757 129.188 262.684 128.871 262.684 128.529C262.684 128.432 262.684 128.334 262.684 128.236C262.732 128.09 262.757 127.968 262.757 127.87C262.757 127.528 262.586 127.284 262.244 127.138C261.951 126.942 261.756 126.723 261.658 126.479C261.316 125.697 261.023 124.989 260.779 124.354C260.535 123.671 260.291 123.012 260.047 122.377C259.803 121.693 259.485 120.985 259.095 120.253C258.753 119.472 258.313 118.617 257.776 117.689C257.532 117.299 257.239 116.933 256.897 116.591C256.604 116.249 256.36 115.883 256.165 115.492C255.628 114.467 255.237 113.441 254.993 112.416C254.798 111.342 254.456 110.365 253.968 109.486C253.577 108.754 253.089 108.095 252.503 107.509C251.966 106.874 251.526 106.264 251.185 105.678C251.038 105.434 250.867 105.019 250.672 104.433C250.525 103.798 250.33 103.163 250.086 102.528C249.891 101.845 249.646 101.259 249.354 100.771C249.109 100.233 248.841 99.9648 248.548 99.9648C248.304 99.9648 248.011 100.136 247.669 100.478C247.327 100.771 246.863 101.234 246.277 101.869C245.984 102.162 245.74 102.577 245.545 103.114C245.35 103.651 245.057 104.115 244.666 104.506C244.52 104.652 244.3 104.823 244.007 105.019C243.714 105.214 243.421 105.434 243.128 105.678C242.835 105.873 242.566 106.117 242.322 106.41C242.078 106.654 241.956 106.947 241.956 107.289C241.907 107.68 241.688 107.948 241.297 108.095C240.955 108.241 240.638 108.51 240.345 108.9C239.905 109.535 239.539 110.097 239.246 110.585C239.002 111.024 238.758 111.464 238.514 111.903C238.318 112.294 238.074 112.709 237.781 113.148C237.488 113.539 237.049 113.954 236.463 114.394C236.072 114.687 235.657 114.882 235.218 114.979C234.827 115.077 234.51 115.248 234.266 115.492C233.973 115.834 233.729 116.176 233.533 116.518C233.387 116.859 233.216 117.25 233.021 117.689C232.874 118.08 232.679 118.544 232.435 119.081C232.239 119.569 231.946 120.18 231.556 120.912C231.409 121.156 231.214 121.376 230.97 121.571C230.726 121.718 230.555 121.889 230.457 122.084C230.115 122.621 229.847 123.231 229.651 123.915C229.456 124.55 229.188 125.209 228.846 125.893C228.553 126.43 228.235 126.967 227.894 127.504C227.552 127.992 227.308 128.529 227.161 129.115C227.405 129.164 227.771 129.188 228.26 129.188C229.871 129.188 231.434 129.018 232.947 128.676C234.51 128.334 235.999 128.163 237.415 128.163C237.952 128.163 238.44 128.188 238.88 128.236C239.368 128.285 239.856 128.407 240.345 128.603C240.198 129.335 239.783 129.896 239.1 130.287C238.465 130.678 237.708 130.995 236.829 131.239C235.95 131.435 235.022 131.605 234.046 131.752C233.118 131.898 232.288 132.118 231.556 132.411C230.921 132.704 230.042 133.021 228.919 133.363C227.796 133.705 226.575 134.022 225.257 134.315C223.938 134.608 222.596 134.877 221.229 135.121C219.91 135.316 218.714 135.414 217.64 135.414C217.249 135.414 216.834 135.414 216.395 135.414C216.004 135.365 215.589 135.341 215.149 135.341C214.173 135.341 213.196 135.365 212.22 135.414C211.292 135.463 210.438 135.561 209.656 135.707C209.266 135.805 208.899 135.927 208.558 136.073C208.216 136.269 207.874 136.464 207.532 136.659C207.239 136.854 206.897 137.025 206.507 137.172C206.165 137.318 205.774 137.392 205.335 137.392C204.358 137.392 203.455 137.147 202.625 136.659C201.844 136.171 201.453 135.585 201.453 134.901C201.453 134.511 201.575 134.096 201.819 133.656C202.112 133.217 202.747 132.997 203.724 132.997C204.114 132.997 204.578 133.021 205.115 133.07C205.652 133.119 206.189 133.144 206.727 133.144C208.045 133.144 209.192 133.021 210.169 132.777C211.146 132.484 212 132.094 212.732 131.605C213.514 131.068 214.222 130.458 214.856 129.774C215.491 129.091 216.126 128.334 216.761 127.504C216.907 127.309 217.078 127.04 217.273 126.698C217.469 126.308 217.664 126.039 217.859 125.893C218.396 125.453 218.982 125.16 219.617 125.014C220.252 124.867 220.765 124.599 221.155 124.208C221.546 123.817 222.01 123.28 222.547 122.597C223.133 121.913 223.768 121.181 224.451 120.399C224.939 119.862 225.477 119.325 226.062 118.788C226.648 118.251 227.21 117.689 227.747 117.104C227.894 116.908 227.967 116.664 227.967 116.371C227.967 116.029 228.064 115.736 228.26 115.492C228.455 115.297 228.748 115.053 229.139 114.76C229.529 114.418 229.92 114.101 230.311 113.808C230.75 113.466 231.165 113.124 231.556 112.782C231.995 112.392 232.361 112.025 232.654 111.684C232.947 111.293 233.143 110.902 233.24 110.512C233.338 110.121 233.509 109.779 233.753 109.486C234.681 108.363 235.682 107.24 236.756 106.117C237.879 104.994 239.075 103.749 240.345 102.382C240.931 101.796 241.565 101.161 242.249 100.478C242.933 99.7939 243.567 99.1348 244.153 98.5C244.739 97.8164 245.228 97.1816 245.618 96.5957C246.058 95.9609 246.277 95.4238 246.277 94.9844C246.277 94.4961 246.18 93.9346 245.984 93.2998C245.789 92.665 245.545 92.0303 245.252 91.3955C245.105 91.1514 244.861 91.0293 244.52 91.0293C244.227 91.0293 244.08 90.9072 244.08 90.6631C244.08 90.5654 244.08 90.4678 244.08 90.3701C244.129 90.2236 244.153 90.1016 244.153 90.0039C244.153 89.7598 243.934 89.5156 243.494 89.2715C243.104 89.0273 242.908 88.7588 242.908 88.4658C242.908 88.2705 242.933 88.0996 242.981 87.9531C243.03 87.7578 243.055 87.5869 243.055 87.4404C243.055 87.0986 242.884 86.5371 242.542 85.7559C242.2 84.9258 241.834 84.0957 241.443 83.2656C241.053 82.4355 240.687 81.7031 240.345 81.0684C240.003 80.3848 239.808 79.9941 239.759 79.8965C239.661 79.7988 239.466 79.7256 239.173 79.6768C238.88 79.5791 238.709 79.4814 238.66 79.3838C238.465 78.9932 238.367 78.4561 238.367 77.7725C238.367 77.0889 238.27 76.5273 238.074 76.0879C237.928 75.6973 237.684 75.2822 237.342 74.8428C237.049 74.4033 236.756 73.915 236.463 73.3779C236.219 72.8896 236.023 72.4258 235.877 71.9863C235.779 71.498 235.608 71.0586 235.364 70.668C234.632 69.3008 233.802 68.0312 232.874 66.8594C231.946 65.6387 231.141 64.3447 230.457 62.9775C230.213 62.5869 229.993 62.0986 229.798 61.5127C229.651 60.9268 229.505 60.5117 229.358 60.2676C229.114 59.9746 228.772 59.6572 228.333 59.3154C227.942 58.9248 227.527 58.583 227.088 58.29C226.648 57.9482 226.233 57.6797 225.843 57.4844C225.452 57.2402 225.11 57.1182 224.817 57.1182C224.476 57.1182 223.987 57.2891 223.353 57.6309C222.718 57.9238 222.205 58.0703 221.814 58.0703C221.619 58.0703 221.546 57.9971 221.595 57.8506C221.644 57.6553 221.546 57.5576 221.302 57.5576C220.813 57.5576 220.179 57.7529 219.397 58.1436C218.616 58.5342 217.933 58.7295 217.347 58.7295C217.151 58.7295 216.956 58.6807 216.761 58.583C216.712 58.583 216.59 58.4609 216.395 58.2168C216.199 57.9727 215.979 57.6797 215.735 57.3379C215.54 56.9473 215.345 56.5566 215.149 56.166C215.003 55.7754 214.93 55.3848 214.93 54.9941C214.93 54.2617 215.198 53.7734 215.735 53.5293C216.272 53.2852 216.785 53.1631 217.273 53.1631C217.908 53.1631 218.543 53.2607 219.178 53.4561C219.861 53.6025 220.423 53.6758 220.862 53.6758C221.106 53.6758 221.302 53.6025 221.448 53.4561C221.644 53.2607 222.034 53.1631 222.62 53.1631C222.913 53.1631 223.182 53.1875 223.426 53.2363C223.719 53.2363 224.012 53.2363 224.305 53.2363C224.891 53.2363 225.379 53.1387 225.77 52.9434C226.209 52.748 226.575 52.5283 226.868 52.2842C227.21 52.04 227.527 51.7959 227.82 51.5518C228.162 51.3076 228.504 51.1123 228.846 50.9658C229.334 50.7705 229.993 50.624 230.823 50.5264C231.653 50.4287 232.264 50.3799 232.654 50.3799C233.338 50.4287 233.899 50.4775 234.339 50.5264C234.827 50.5752 235.364 50.7217 235.95 50.9658C236.39 51.1611 236.731 51.4053 236.976 51.6982C237.22 51.9424 237.61 52.0645 238.147 52.0645C238.489 52.0645 239.002 51.9912 239.686 51.8447C240.418 51.6494 241.175 51.4785 241.956 51.332C242.786 51.1367 243.616 50.9658 244.446 50.8193C245.276 50.624 246.033 50.5264 246.717 50.5264C247.4 50.5264 247.962 50.6484 248.401 50.8926C248.841 51.0879 249.061 51.4785 249.061 52.0645C249.061 52.8945 248.816 53.4316 248.328 53.6758C247.889 53.8711 247.327 53.9688 246.644 53.9688C246.204 53.9688 245.74 53.9443 245.252 53.8955C244.764 53.8467 244.3 53.8223 243.86 53.8223C243.226 53.8223 242.615 53.9443 242.029 54.1885C241.443 54.4326 241.15 54.8965 241.15 55.5801C241.15 56.1172 241.272 56.752 241.517 57.4844C241.761 58.168 242.054 58.876 242.396 59.6084C242.737 60.292 243.079 60.9512 243.421 61.5859C243.763 62.2207 244.007 62.6846 244.153 62.9775C244.886 64.4912 245.618 65.8828 246.351 67.1523C247.083 68.373 247.62 69.3496 247.962 70.082C248.548 71.4004 249.183 73.0605 249.866 75.0625C250.55 77.0645 251.551 79.2373 252.869 81.5811C252.967 81.6787 253.162 81.7764 253.455 81.874C253.748 81.9717 253.919 82.0693 253.968 82.167C254.065 82.46 254.163 82.8994 254.261 83.4854C254.358 84.0713 254.749 84.3643 255.433 84.3643C255.97 84.3643 256.385 84.1934 256.678 83.8516C256.971 83.5098 257.215 83.1191 257.41 82.6797C257.654 82.1914 257.874 81.7031 258.069 81.2148C258.313 80.6777 258.582 80.2383 258.875 79.8965C259.754 78.9199 260.804 78.041 262.024 77.2598C263.245 76.4297 264.222 75.502 264.954 74.4766C265.149 74.1348 265.223 73.793 265.174 73.4512C265.174 73.0605 265.271 72.6699 265.467 72.2793C265.564 72.1328 265.735 71.9619 265.979 71.7666C266.272 71.5225 266.468 71.3271 266.565 71.1807C266.81 70.6924 266.98 70.1064 267.078 69.4229C267.225 68.7393 267.396 68.2266 267.591 67.8848C267.933 67.4453 268.372 67.1279 268.909 66.9326C269.446 66.6885 269.935 66.2979 270.374 65.7607C270.569 65.5166 270.667 65.248 270.667 64.9551C270.716 64.6133 270.789 64.3203 270.887 64.0762C271.131 63.7344 271.473 63.3193 271.912 62.8311C272.4 62.2939 272.864 61.7568 273.304 61.2197C273.743 60.6338 274.109 60.0234 274.402 59.3887C274.744 58.7539 274.915 58.0947 274.915 57.4111C274.915 56.9229 274.671 56.6055 274.183 56.459C273.694 56.2637 273.255 56.166 272.864 56.166C272.181 56.166 271.424 56.2881 270.594 56.5322C269.812 56.7275 269.007 56.874 268.177 56.9717C267.835 57.0693 267.591 57.2891 267.444 57.6309C267.298 57.9727 267.029 58.1436 266.639 58.1436C265.955 58.1436 265.296 57.9482 264.661 57.5576C264.026 57.1182 263.709 56.5811 263.709 55.9463C263.709 55.2627 263.953 54.7744 264.441 54.4814C264.979 54.1885 265.613 54.0176 266.346 53.9688C267.127 53.8711 267.957 53.8223 268.836 53.8223C269.764 53.8223 270.643 53.7734 271.473 53.6758C272.156 53.627 272.962 53.5049 273.89 53.3096C274.817 53.1143 275.794 52.9434 276.819 52.7969C277.845 52.6016 278.895 52.4307 279.969 52.2842C281.043 52.1377 282.093 52.0645 283.118 52.0645C283.655 52.0645 284.192 52.0889 284.729 52.1377C285.315 52.1377 285.853 52.1377 286.341 52.1377C286.927 52.1377 287.562 52.0889 288.245 51.9912C288.929 51.8447 289.612 51.6982 290.296 51.5518C290.979 51.4053 291.639 51.2832 292.273 51.1855C292.908 51.0391 293.47 50.9658 293.958 50.9658C294.69 50.9658 295.203 51.1367 295.496 51.4785ZM335.926 54.1152C336.072 54.5059 336.146 54.7988 336.146 54.9941C336.146 55.3848 335.95 55.7266 335.56 56.0195C335.218 56.2637 334.778 56.459 334.241 56.6055C333.753 56.752 333.24 56.874 332.703 56.9717C332.166 57.0205 331.727 57.0449 331.385 57.0449C331.043 57.0449 330.701 57.0449 330.359 57.0449C330.066 56.9961 329.773 56.9717 329.48 56.9717C328.455 56.9717 327.649 57.2158 327.063 57.7041C326.526 58.1924 326.087 58.9248 325.745 59.9014C325.452 60.8291 325.208 62.001 325.013 63.417C324.866 64.833 324.671 66.4688 324.427 68.3242C324.28 69.4473 324.109 70.6191 323.914 71.8398C323.719 73.0117 323.523 74.1592 323.328 75.2822C323.182 76.4053 323.035 77.5039 322.889 78.5781C322.791 79.6035 322.742 80.5557 322.742 81.4346C322.742 82.167 322.767 82.8994 322.815 83.6318C322.864 84.3154 322.889 84.999 322.889 85.6826C322.889 87.1963 322.645 88.6855 322.156 90.1504C321.717 91.6152 321.375 93.0801 321.131 94.5449C320.984 95.8633 320.789 97.2061 320.545 98.5732C320.35 99.9404 320.203 101.161 320.105 102.235C319.91 104.237 319.764 106.142 319.666 107.948C319.568 109.755 319.446 111.464 319.3 113.075C319.202 114.687 319.031 116.225 318.787 117.689C318.592 119.154 318.274 120.57 317.835 121.938V122.084C317.835 122.182 317.835 122.304 317.835 122.45C317.884 122.548 317.908 122.646 317.908 122.743C317.908 123.085 317.713 123.451 317.322 123.842C316.98 124.232 316.81 124.77 316.81 125.453C316.81 125.893 316.907 126.625 317.103 127.65C317.347 128.627 317.469 129.579 317.469 130.507C317.469 130.849 317.42 131.264 317.322 131.752C317.566 131.801 317.786 131.85 317.981 131.898C318.177 131.898 318.396 131.898 318.641 131.898C319.617 131.898 320.545 131.776 321.424 131.532C322.303 131.288 323.157 131.166 323.987 131.166C324.378 131.166 324.842 131.264 325.379 131.459C325.965 131.605 326.258 131.972 326.258 132.558C326.258 132.802 325.599 133.119 324.28 133.51C323.011 133.9 321.546 134.291 319.886 134.682C318.226 135.072 316.614 135.463 315.052 135.854C313.489 136.195 312.439 136.488 311.902 136.732C311.658 136.781 311.438 136.806 311.243 136.806C311.097 136.854 310.926 136.879 310.73 136.879C310.34 136.879 309.949 136.854 309.559 136.806C309.168 136.757 308.68 136.732 308.094 136.732C307.41 136.732 306.653 136.806 305.823 136.952C304.993 137.147 304.139 137.318 303.26 137.465C302.381 137.66 301.526 137.831 300.696 137.978C299.866 138.173 299.109 138.271 298.426 138.271C297.645 138.271 297.034 138.124 296.595 137.831C296.204 137.538 296.009 136.977 296.009 136.146C296.009 135.561 296.253 135.121 296.741 134.828C297.229 134.535 297.84 134.315 298.572 134.169C299.305 134.022 300.086 133.9 300.916 133.803C301.746 133.705 302.479 133.583 303.113 133.437C303.26 133.388 303.406 133.29 303.553 133.144C303.748 132.997 304.041 132.924 304.432 132.924H305.604C305.75 132.924 305.921 132.484 306.116 131.605C306.312 130.727 306.507 129.604 306.702 128.236C306.897 126.869 307.093 125.355 307.288 123.695C307.483 122.035 307.654 120.448 307.801 118.935C307.996 117.372 308.143 115.98 308.24 114.76C308.387 113.49 308.509 112.611 308.606 112.123C308.704 111.586 308.875 111 309.119 110.365C309.363 109.73 309.534 109.047 309.632 108.314C309.876 106.312 310.047 104.237 310.145 102.089C310.242 99.9404 310.462 97.8164 310.804 95.7168C310.853 95.2285 310.95 94.7891 311.097 94.3984C311.243 93.959 311.365 93.5439 311.463 93.1533C311.609 92.7627 311.731 92.3477 311.829 91.9082C311.927 91.4199 311.976 90.8584 311.976 90.2236C311.976 89.4424 311.951 88.6855 311.902 87.9531C311.854 87.2207 311.829 86.4883 311.829 85.7559C311.829 84.6328 311.976 83.6318 312.269 82.7529C312.61 81.8252 312.83 80.8486 312.928 79.8232C313.025 78.7002 313.074 77.748 313.074 76.9668C313.123 76.1367 313.27 75.2578 313.514 74.3301C313.611 73.9395 313.782 73.4512 314.026 72.8652C314.319 72.2793 314.515 71.6934 314.612 71.1074C314.759 70.0332 314.832 68.9834 314.832 67.958C314.881 66.8838 314.905 65.8584 314.905 64.8818C314.954 63.8564 315.027 62.8799 315.125 61.9521C315.223 60.9756 315.418 60.0234 315.711 59.0957C315.32 58.9004 314.881 58.8027 314.393 58.8027C313.514 58.8027 312.61 59.0225 311.683 59.4619C310.804 59.9014 309.949 60.1211 309.119 60.1211C308.777 60.0723 308.387 59.877 307.947 59.5352C307.557 59.1934 307.361 58.7539 307.361 58.2168C307.361 57.2891 307.679 56.7275 308.313 56.5322C308.997 56.2881 309.852 56.166 310.877 56.166H313.294C313.88 56.166 314.466 56.1416 315.052 56.0928C315.638 56.0439 316.224 55.9463 316.81 55.7998C317.249 55.7021 317.713 55.4824 318.201 55.1406C318.738 54.75 319.275 54.3838 319.812 54.042C320.398 53.6514 320.984 53.3096 321.57 53.0166C322.156 52.7236 322.791 52.5771 323.475 52.5771C323.914 52.5771 324.329 52.6992 324.72 52.9434C325.11 53.1387 325.452 53.3828 325.745 53.6758C326.087 53.9199 326.38 54.1641 326.624 54.4082C326.868 54.6035 327.063 54.7012 327.21 54.7012C327.356 54.7012 327.649 54.6279 328.089 54.4814C328.577 54.335 329.114 54.1885 329.7 54.042C330.335 53.8955 330.994 53.749 331.678 53.6025C332.361 53.4561 333.021 53.3828 333.655 53.3828C334.681 53.3828 335.438 53.627 335.926 54.1152ZM409.534 50.8926C408.997 50.9902 408.533 51.1367 408.143 51.332C407.801 51.4785 407.483 51.6494 407.19 51.8447C406.946 52.04 406.824 52.2598 406.824 52.5039C406.824 52.6992 406.458 52.9678 405.726 53.3096C404.993 53.6514 404.163 54.0176 403.235 54.4082C402.308 54.7988 401.38 55.1895 400.452 55.5801C399.573 55.9219 398.963 56.166 398.621 56.3125C397.938 56.7031 397.254 56.9961 396.57 57.1914C395.887 57.3867 395.276 57.6309 394.739 57.9238C393.812 58.4609 393.104 58.9736 392.615 59.4619C392.127 59.9014 391.639 60.1211 391.15 60.1211C389.441 60.1211 387.928 60.0234 386.609 59.8281C385.291 59.6328 384.07 59.5352 382.947 59.5352C381.775 59.5352 380.896 60.0479 380.311 61.0732C379.773 62.0986 379.358 63.3682 379.065 64.8818C378.821 66.3955 378.626 68.0068 378.479 69.7158C378.382 71.4248 378.162 72.9629 377.82 74.3301C377.527 75.3555 377.283 76.6494 377.088 78.2119C376.941 79.7256 376.771 81.3125 376.575 82.9727C376.429 84.6328 376.282 86.293 376.136 87.9531C375.989 89.6133 375.818 91.1025 375.623 92.4209C375.428 93.5439 375.184 94.4961 374.891 95.2773C374.598 96.0098 374.451 96.8643 374.451 97.8408C374.451 98.3291 374.451 98.8174 374.451 99.3057C374.5 99.7451 374.524 100.209 374.524 100.697C374.524 102.309 374.378 103.969 374.085 105.678C373.792 107.338 373.572 108.925 373.426 110.438C373.23 112.147 373.133 113.734 373.133 115.199C373.133 116.664 373.06 117.982 372.913 119.154C372.815 119.545 372.62 120.009 372.327 120.546C372.083 121.083 371.888 121.718 371.741 122.45C371.741 122.499 371.717 122.963 371.668 123.842C371.619 124.721 371.546 125.697 371.448 126.771C371.399 127.846 371.351 128.847 371.302 129.774C371.253 130.653 371.229 131.142 371.229 131.239C371.57 131.63 372.059 131.825 372.693 131.825C373.67 131.825 374.744 131.654 375.916 131.312C377.088 130.971 378.382 130.8 379.798 130.8C380.677 130.8 381.287 131.117 381.629 131.752C381.531 132.436 381.287 132.899 380.896 133.144C380.506 133.388 380.018 133.559 379.432 133.656C378.846 133.705 378.211 133.729 377.527 133.729C376.844 133.729 376.209 133.803 375.623 133.949C375.135 134.047 374.598 134.218 374.012 134.462C373.475 134.657 372.913 134.853 372.327 135.048C371.497 135.292 370.643 135.438 369.764 135.487C368.934 135.487 368.323 135.707 367.933 136.146C367.542 136.586 367.078 137.074 366.541 137.611C366.004 138.148 365.247 138.417 364.271 138.417C363.44 138.417 362.562 138.319 361.634 138.124C360.755 137.929 359.754 137.831 358.631 137.831C357.605 137.831 356.629 137.929 355.701 138.124C354.773 138.319 353.87 138.515 352.991 138.71C352.161 138.954 351.38 139.149 350.647 139.296C349.964 139.491 349.354 139.589 348.816 139.589C348.23 139.589 347.742 139.418 347.352 139.076C346.961 138.783 346.766 138.368 346.766 137.831C346.766 137.587 346.863 137.27 347.059 136.879C347.303 136.488 347.62 136.122 348.011 135.78C348.401 135.39 348.841 135.072 349.329 134.828C349.866 134.584 350.452 134.462 351.087 134.462C351.331 134.462 351.722 134.535 352.259 134.682C352.796 134.779 353.406 134.828 354.09 134.828C354.676 134.828 355.188 134.804 355.628 134.755C356.116 134.706 356.556 134.56 356.946 134.315C357.337 134.071 357.703 133.705 358.045 133.217C358.436 132.729 358.826 132.069 359.217 131.239C359.461 130.702 359.632 130.141 359.729 129.555C359.876 128.969 359.949 128.31 359.949 127.577C359.998 126.845 360.047 126.015 360.096 125.087C360.145 124.159 360.218 123.109 360.315 121.938C360.315 121.498 360.511 120.839 360.901 119.96C361.292 119.081 361.487 118.08 361.487 116.957C361.487 116.42 361.463 115.907 361.414 115.419C361.365 114.931 361.341 114.491 361.341 114.101C361.341 113.271 361.463 112.465 361.707 111.684C361.951 110.902 362.22 109.95 362.513 108.827V108.461C362.513 108.314 362.488 108.168 362.439 108.021C362.439 107.826 362.439 107.655 362.439 107.509C362.879 107.069 363.196 106.288 363.392 105.165C363.587 104.042 363.733 102.772 363.831 101.356C363.978 99.8916 364.1 98.3779 364.197 96.8154C364.295 95.2041 364.466 93.7393 364.71 92.4209C364.71 92.3721 364.808 91.8594 365.003 90.8828C365.247 89.8574 365.516 88.6855 365.809 87.3672C366.102 86.0488 366.346 84.7305 366.541 83.4121C366.785 82.0449 366.907 80.9951 366.907 80.2627C366.907 79.8232 366.883 79.3838 366.834 78.9443C366.834 78.5049 366.834 78.0898 366.834 77.6992C366.834 76.8691 366.932 75.6973 367.127 74.1836C367.371 72.6699 367.615 71.083 367.859 69.4229C368.104 67.7139 368.323 66.0781 368.519 64.5156C368.763 62.9531 368.885 61.708 368.885 60.7803C368.885 60.2432 368.763 59.877 368.519 59.6816C368.274 59.4375 367.591 59.3154 366.468 59.3154C364.124 59.3154 361.829 59.4619 359.583 59.7549C357.337 60.0479 355.286 60.4141 353.431 60.8535C351.624 61.2441 350.11 61.6348 348.89 62.0254C347.669 62.416 346.912 62.709 346.619 62.9043C346.424 63.0508 346.131 63.3926 345.74 63.9297C345.35 64.418 344.91 64.9551 344.422 65.541C343.934 66.127 343.421 66.6641 342.884 67.1523C342.347 67.5918 341.81 67.8115 341.272 67.8115C340.931 67.8115 340.564 67.6895 340.174 67.4453C339.832 67.1523 339.661 66.835 339.661 66.4932C339.661 66.2002 339.905 65.7363 340.394 65.1016C340.882 64.4668 341.468 63.7832 342.151 63.0508C342.835 62.3184 343.543 61.6104 344.275 60.9268C345.008 60.1943 345.618 59.584 346.106 59.0957C346.644 58.6074 347.278 57.9727 348.011 57.1914C348.792 56.4102 349.549 55.6533 350.281 54.9209C351.062 54.1885 351.819 53.5537 352.552 53.0166C353.284 52.4307 353.87 52.0645 354.31 51.918C354.749 51.8203 355.384 51.7227 356.214 51.625C357.044 51.4785 357.605 51.4053 357.898 51.4053C358.68 51.4053 359.534 51.5029 360.462 51.6982C361.438 51.8447 362.293 51.918 363.025 51.918C363.807 51.918 364.563 51.8447 365.296 51.6982C366.028 51.5029 366.736 51.4053 367.42 51.4053C368.152 51.4053 368.934 51.5029 369.764 51.6982C370.594 51.8936 371.277 51.9912 371.814 51.9912C372.742 51.9912 373.572 51.6738 374.305 51.0391C375.086 50.4043 375.794 49.6963 376.429 48.915C377.112 48.1338 377.723 47.4258 378.26 46.791C378.797 46.1562 379.285 45.8389 379.725 45.8389C380.408 45.8389 380.872 45.9854 381.116 46.2783C381.36 46.5713 381.482 46.8643 381.482 47.1572C381.482 47.499 381.385 47.8652 381.189 48.2559C381.043 48.5977 380.872 48.9395 380.677 49.2812C380.481 49.623 380.286 49.9648 380.091 50.3066C379.944 50.5996 379.871 50.8682 379.871 51.1123C379.871 51.4053 380.018 51.6738 380.311 51.918C380.652 52.1133 381.067 52.2842 381.556 52.4307C382.093 52.5283 382.63 52.6016 383.167 52.6504C383.753 52.6992 384.314 52.7236 384.852 52.7236C385.682 52.7236 386.487 52.6992 387.269 52.6504C388.05 52.5527 388.758 52.5039 389.393 52.5039C389.637 52.5039 389.905 52.6016 390.198 52.7969C390.54 52.9434 390.76 53.0166 390.857 53.0166C391.053 53.0166 391.395 52.9434 391.883 52.7969C392.371 52.6504 392.933 52.5771 393.567 52.5771H395.618C396.937 52.5771 398.304 52.3086 399.72 51.7715C401.136 51.1855 402.576 50.502 404.041 49.7207C404.48 49.5742 404.871 49.3545 405.213 49.0615C405.555 48.7686 405.896 48.5 406.238 48.2559C406.58 47.9629 406.897 47.7188 407.19 47.5234C407.532 47.3281 407.898 47.2305 408.289 47.2305C409.314 47.2305 409.827 47.6943 409.827 48.6221C409.827 48.8662 409.754 49.0859 409.607 49.2812C409.51 49.4766 409.461 49.6963 409.461 49.9404C409.461 50.0381 409.461 50.1846 409.461 50.3799C409.51 50.5264 409.534 50.6484 409.534 50.7461V50.8926Z" fill="white"/>
</svg>
