<svg viewBox="0 0 143 48" fill="none" xmlns="http://www.w3.org/2000/svg" preserveAspectRatio="xMinYMid meet">
  <path d="M2.68075 39V9.90909H8.83132V33.929H21.3029V39H2.68075Z" fill="white"/>
  <g transform="translate(8, 0)">
    <path d="M42.9073 9.90909H49.0579V28.8011C49.0579 30.9223 48.5513 32.7784 47.538 34.3693C46.5342 35.9602 45.128 37.2008 43.3192 38.0909C41.5105 38.9716 39.4035 39.4119 36.9982 39.4119C34.5835 39.4119 32.4717 38.9716 30.663 38.0909C28.8543 37.2008 27.448 35.9602 26.4442 34.3693C25.4405 32.7784 24.9386 30.9223 24.9386 28.8011V9.90909H31.0891V28.2756C31.0891 29.3835 31.3306 30.3684 31.8136 31.2301C32.306 32.0919 32.9973 32.7689 33.8874 33.2614C34.7776 33.7538 35.8145 34 36.9982 34C38.1914 34 39.2283 33.7538 40.109 33.2614C40.9992 32.7689 41.6857 32.0919 42.1687 31.2301C42.6611 30.3684 42.9073 29.3835 42.9073 28.2756V9.90909Z" fill="#7177F8"/>
    <circle class="login-page__brand-logo-dot" cx="37" cy="27" r="4" fill="#7177F8"/>
  </g>
  <g transform="translate(16, 0)">
    <path d="M53.7276 9.90909H61.3129L69.3242 29.4545H69.6651L77.6765 9.90909H85.2617V39H79.2958V20.0653H79.0543L71.5259 38.858H67.4634L59.935 19.9943H59.6935V39H53.7276V9.90909Z" fill="white"/>
  </g>
  <g transform="translate(24, 0)">
    <path d="M116.617 24.4545C116.617 27.6269 116.016 30.3258 114.813 32.5511C113.62 34.7765 111.991 36.4763 109.926 37.6506C107.872 38.8153 105.561 39.3977 102.995 39.3977C100.409 39.3977 98.0894 38.8106 96.0344 37.6364C93.9795 36.4621 92.3555 34.7623 91.1623 32.5369C89.9691 30.3116 89.3725 27.6174 89.3725 24.4545C89.3725 21.2822 89.9691 18.5833 91.1623 16.358C92.3555 14.1326 93.9795 12.4375 96.0344 11.2727C98.0894 10.0985 100.409 9.51136 102.995 9.51136C105.561 9.51136 107.872 10.0985 109.926 11.2727C111.991 12.4375 113.62 14.1326 114.813 16.358C116.016 18.5833 116.617 21.2822 116.617 24.4545ZM110.381 24.4545C110.381 22.3996 110.073 20.6667 109.458 19.2557C108.852 17.8447 107.995 16.7746 106.887 16.0455C105.779 15.3163 104.481 14.9517 102.995 14.9517C101.508 14.9517 100.211 15.3163 99.1026 16.0455C97.9947 16.7746 97.1329 17.8447 96.5174 19.2557C95.9113 20.6667 95.6083 22.3996 95.6083 24.4545C95.6083 26.5095 95.9113 28.2424 96.5174 29.6534C97.1329 31.0644 97.9947 32.1345 99.1026 32.8636C100.211 33.5928 101.508 33.9574 102.995 33.9574C104.481 33.9574 105.779 33.5928 106.887 32.8636C107.995 32.1345 108.852 31.0644 109.458 29.6534C110.073 28.2424 110.381 26.5095 110.381 24.4545Z" fill="white"/>
  </g>
</svg>
