<svg width="20" height="20" viewBox="0 0 20 20" fill="none" xmlns="http://www.w3.org/2000/svg">
<path d="M9.46188 1.2001C9.54895 1.08404 9.60049 0.945216 9.61026 0.800455C9.62002 0.655695 9.58758 0.511211 9.51687 0.384515C9.44617 0.257819 9.34023 0.154351 9.21191 0.0866512C9.08358 0.0189517 8.93837 -0.0100726 8.79388 0.003096C3.37988 0.497096 0.357882 4.7551 0.0298822 9.1081C-0.298118 13.4691 2.06688 18.0831 7.48088 19.2741C13.1669 20.5241 18.9529 16.4371 19.4969 10.6281C19.5104 10.4843 19.4821 10.3396 19.4154 10.2115C19.3487 10.0833 19.2464 9.9772 19.1209 9.9058C18.9953 9.83441 18.8518 9.80079 18.7075 9.80901C18.5633 9.81722 18.4245 9.86691 18.3079 9.9521C15.4709 12.0211 12.2279 11.2681 10.1719 9.2281C8.11788 7.1891 7.37188 3.9891 9.46188 1.2001Z" fill="white"/>
</svg>
