<svg width="182" height="143" viewBox="0 0 182 143" fill="none" xmlns="http://www.w3.org/2000/svg">
<path d="M39 91V78H52V91H39ZM0 26C0 19.1044 2.73928 12.4912 7.61522 7.61522C12.4912 2.73928 19.1044 0 26 0H117C123.896 0 130.509 2.73928 135.385 7.61522C140.261 12.4912 143 19.1044 143 26V110.5C143 112.224 143.685 113.877 144.904 115.096C146.123 116.315 147.776 117 149.5 117C151.224 117 152.877 116.315 154.096 115.096C155.315 113.877 156 112.224 156 110.5V26C162.896 26 169.509 28.7393 174.385 33.6152C179.261 38.4912 182 45.1044 182 52V110.5C182 119.12 178.576 127.386 172.481 133.481C166.386 139.576 158.12 143 149.5 143H32.5C23.8805 143 15.614 139.576 9.51903 133.481C3.4241 127.386 0 119.12 0 110.5V26ZM32.5 39C30.7761 39 29.1228 39.6848 27.9038 40.9038C26.6848 42.1228 26 43.7761 26 45.5C26 47.2239 26.6848 48.8772 27.9038 50.0962C29.1228 51.3152 30.7761 52 32.5 52H110.5C112.224 52 113.877 51.3152 115.096 50.0962C116.315 48.8772 117 47.2239 117 45.5C117 43.7761 116.315 42.1228 115.096 40.9038C113.877 39.6848 112.224 39 110.5 39H32.5ZM32.5 65C30.7761 65 29.1228 65.6848 27.9038 66.9038C26.6848 68.1228 26 69.7761 26 71.5V97.5C26 99.2239 26.6848 100.877 27.9038 102.096C29.1228 103.315 30.7761 104 32.5 104H58.5C60.2239 104 61.8772 103.315 63.0962 102.096C64.3152 100.877 65 99.2239 65 97.5V71.5C65 69.7761 64.3152 68.1228 63.0962 66.9038C61.8772 65.6848 60.2239 65 58.5 65H32.5ZM84.5 65C82.7761 65 81.1228 65.6848 79.9038 66.9038C78.6848 68.1228 78 69.7761 78 71.5C78 73.2239 78.6848 74.8772 79.9038 76.0962C81.1228 77.3152 82.7761 78 84.5 78H110.5C112.224 78 113.877 77.3152 115.096 76.0962C116.315 74.8772 117 73.2239 117 71.5C117 69.7761 116.315 68.1228 115.096 66.9038C113.877 65.6848 112.224 65 110.5 65H84.5ZM84.5 91C82.7761 91 81.1228 91.6848 79.9038 92.9038C78.6848 94.1228 78 95.7761 78 97.5C78 99.2239 78.6848 100.877 79.9038 102.096C81.1228 103.315 82.7761 104 84.5 104H110.5C112.224 104 113.877 103.315 115.096 102.096C116.315 100.877 117 99.2239 117 97.5C117 95.7761 116.315 94.1228 115.096 92.9038C113.877 91.6848 112.224 91 110.5 91H84.5Z" fill="white"/>
</svg>
