<svg width="158" height="102" viewBox="0 0 158 102" fill="none" xmlns="http://www.w3.org/2000/svg">
<path d="M20.5939 32.1183C12.672 34.3876 6.27197 39.4281 2.80157 46.1309C-0.668819 52.8337 -0.92525 60.6498 2.08869 67.8597L4.36151 73.2966L171.629 25.38L169.357 19.9431C166.343 12.7332 160.305 6.72012 152.572 3.22663C144.84 -0.266859 136.045 -0.954582 128.123 1.31475L20.5939 32.1183ZM176.175 36.254L8.90714 84.1706L24.8169 122.229C27.8308 129.439 33.8682 135.452 41.601 138.946C49.3337 142.439 58.1284 143.127 66.0502 140.858L173.58 110.054C181.501 107.785 187.901 102.744 191.372 96.0415C194.842 89.3387 195.099 81.5227 192.085 74.3128L176.175 36.254ZM136.047 84.2776L159.943 77.4324C161.527 76.9785 163.286 77.116 164.832 77.8147C166.379 78.5134 167.586 79.716 168.189 81.158C168.792 82.6 168.741 84.1632 168.047 85.5038C167.353 86.8443 166.073 87.8524 164.488 88.3063L140.593 95.1515C139.008 95.6054 137.25 95.4679 135.703 94.7692C134.156 94.0705 132.949 92.8678 132.346 91.4259C131.743 89.9839 131.795 88.4207 132.489 87.0801C133.183 85.7395 134.463 84.7314 136.047 84.2776Z" fill="white"/>
</svg>
