<svg width="121" height="121" viewBox="0 0 121 121" fill="none" xmlns="http://www.w3.org/2000/svg">
<path d="M97.6467 70.1753C104.315 68.6794 111.316 69.2901 117.297 71.8894C123.277 74.4887 127.811 78.8917 130.021 84.2468C134.61 95.3668 130.208 107.167 121.69 116.733C113.137 126.359 99.7751 134.607 83.8499 139.655C67.9248 144.703 51.6345 145.854 38.0351 143.25C24.4943 140.692 12.5109 134.069 7.92251 122.949C5.55497 117.211 6.04095 110.835 9.27355 105.222C12.5061 99.6096 18.2206 95.2208 25.1597 93.0213L94.9304 70.9058L97.6467 70.1753ZM27.3244 2.56937C32.5169 0.822656 38.0348 -0.050157 43.5548 0.00209416C49.0747 0.0543453 54.4856 1.03061 59.4702 2.87366C64.4548 4.71671 68.9129 7.38946 72.5832 10.7352C76.2534 14.081 79.062 18.0325 80.8442 22.3581C82.6264 26.6837 83.3465 31.2963 82.9621 35.9256C82.5777 40.555 81.0967 45.1078 78.6058 49.3173C76.1149 53.5268 72.6643 57.3082 68.4563 60.4399C64.2482 63.5717 59.3673 65.9907 54.0998 67.5552C43.749 70.6336 32.5212 70.2332 22.8238 66.4396C13.1264 62.6461 5.73131 55.7615 2.22418 47.2619C-1.28295 38.7624 -0.622953 29.3245 4.06266 20.972C8.74828 12.6194 17.0865 6.01699 27.2895 2.58043" fill="white"/>
</svg>
