<svg width="175" height="108" viewBox="0 0 175 108" fill="none" xmlns="http://www.w3.org/2000/svg">
<path d="M85.7018 79.306C92.5632 77.5736 100.038 78.3405 106.483 81.4381C112.927 84.5356 117.813 89.71 120.065 95.823C124.163 106.944 119.753 117.694 111.282 126.131C102.802 134.545 89.793 141.256 74.5938 145.094C59.3946 148.931 44.0752 149.373 31.3665 146.309C18.6363 143.225 7.74309 136.339 3.64555 125.217C1.39324 119.104 1.95888 112.554 5.21802 107.006C8.47716 101.459 14.1628 97.3687 21.0243 95.6363L85.7018 79.306ZM171.796 57.6693C176.734 56.8994 181.898 57.7815 186.287 60.1451C190.675 62.5086 193.978 66.1856 195.555 70.4645C198.829 79.35 195.458 88.2377 189.071 95.1536C182.657 102.114 172.706 107.725 160.896 110.707C151.841 112.993 142.684 113.466 134.388 112.324C135.759 106.145 135.54 99.4865 132.988 92.5603C129.765 83.8131 123.157 76.7772 114.896 72.1995C115.891 71.7802 116.94 71.4273 118.041 71.1409L169.783 58.0768L171.796 57.6693ZM25.763 12.5616C35.1975 10.1795 45.4758 11.234 54.3368 15.4932C63.1978 19.7523 69.9157 26.8671 73.0126 35.2725C76.1095 43.6779 75.3318 52.6852 70.8504 60.3131C66.3691 67.941 58.5513 73.5645 49.1169 75.9466C39.6824 78.3287 29.4041 77.2742 20.5431 73.015C11.6821 68.7559 4.9642 61.6411 1.86729 53.2357C-1.22962 44.8303 -0.451871 35.823 4.02945 28.1951C8.51076 20.5672 16.3286 14.9437 25.763 12.5616ZM120.571 1.18275C124.42 0.131248 128.501 -0.224395 132.575 0.136668C136.648 0.497731 140.632 1.56823 144.293 3.28543C147.954 5.00262 151.217 7.33195 153.893 10.1369C156.569 12.9418 158.603 16.1659 159.876 19.6201C161.148 23.0744 161.634 26.6893 161.305 30.253C160.976 33.8167 159.838 37.2575 157.958 40.3736C156.078 43.4897 153.494 46.2185 150.357 48.4C147.221 50.5815 143.594 52.1718 139.691 53.0778C132.021 54.8582 123.738 53.8926 116.62 50.388C109.502 46.8835 104.115 41.1189 101.614 34.3304C99.113 27.5419 99.6968 20.2698 103.24 14.0733C106.784 7.8768 113.006 3.24923 120.571 1.18275Z" fill="white"/>
</svg>
