<svg width="23" height="20" viewBox="0 0 23 20" fill="none" xmlns="http://www.w3.org/2000/svg">
<path d="M12.8364 3.51777C12.3977 3.47032 11.9519 3.44312 11.5 3.43635C9.52535 3.44511 7.47839 3.92543 5.54083 4.84579C4.10222 5.5573 2.70085 6.56177 1.48383 7.80079C0.886113 8.43329 0.123261 9.34912 0 10.3262C0.0145667 11.1727 0.922933 12.2174 1.48383 12.8517C2.62507 14.0421 3.98994 15.0178 5.54083 15.8067C5.59356 15.8323 5.64643 15.8576 5.69946 15.8825L4.26058 18.3953L6.21567 19.5508L16.7845 1.15015L14.9026 0L12.8364 3.51777ZM17.2991 4.77279L15.863 7.26171C16.5237 8.12003 16.9159 9.1785 16.9159 10.3262C16.9159 13.187 14.4909 15.5063 11.4986 15.5063C11.3692 15.5063 11.2439 15.4923 11.1167 15.4838L10.1664 17.1291C10.6047 17.176 11.0478 17.2102 11.5 17.2161C13.4765 17.2073 15.5223 16.7214 17.4577 15.8067C18.8964 15.0952 20.2991 14.0907 21.5162 12.8517C22.1139 12.2192 22.8767 11.3034 23 10.3262C22.9854 9.47981 22.077 8.43508 21.5162 7.80078C20.3749 6.61041 19.0086 5.63469 17.4577 4.84575C17.4054 4.82038 17.3518 4.79755 17.2991 4.77279ZM11.4986 5.14621C11.6298 5.14621 11.76 5.15146 11.8889 5.16024L10.7756 7.08766C9.21328 7.40441 8.04101 8.7337 8.04101 10.3249C8.04101 10.7246 8.11463 11.1072 8.25018 11.4619C8.25033 11.4623 8.25002 11.4629 8.25018 11.4633L7.13414 13.3964C6.47191 12.5373 6.08128 11.4753 6.08128 10.3262C6.0813 7.46549 8.50632 5.14619 11.4986 5.14621ZM14.7372 9.21022L12.2286 13.5564C13.7825 13.2337 14.9464 11.9105 14.9464 10.3249C14.9464 9.93244 14.868 9.55936 14.7372 9.21022Z" fill="#7177F8"/>
</svg>
