<svg width="145" height="97" viewBox="0 0 145 97" fill="none" xmlns="http://www.w3.org/2000/svg">
<path fill-rule="evenodd" clip-rule="evenodd" d="M5.3805 28.7005C-3.95574 40.6037 0.0862009 56.392 8.17351 87.9818C16.2608 119.572 20.3045 135.367 34.6674 143.098C49.0482 150.833 68.1204 147.487 106.281 140.793C144.441 134.098 163.522 130.75 172.86 118.854C182.209 106.969 178.164 91.1678 170.076 59.5779C161.989 27.9881 157.945 12.1932 143.573 4.4564C129.218 -3.27653 110.13 0.0722815 71.969 6.76707C33.8085 13.4619 14.7283 16.8093 5.3805 28.7005ZM99.8603 57.892C100.571 60.6663 103.867 62.4407 107.218 61.8528L112.804 60.8729L99.9619 77.2214C99.8139 77.4104 99.6223 77.5733 99.398 77.7009C99.1738 77.8285 98.9213 77.9182 98.6551 77.9649C98.3889 78.0116 98.1142 78.0144 97.8467 77.9731C97.5792 77.9318 97.3242 77.8472 97.0963 77.7241L81.5364 69.3483C78.3174 67.6169 74.3996 67.0143 70.6441 67.6732C66.8887 68.332 63.6029 70.1983 61.509 72.8619L46.8807 91.4844C46.402 92.0492 46.0656 92.688 45.8916 93.3627C45.7176 94.0375 45.7096 94.7343 45.868 95.4116C46.0263 96.089 46.3479 96.733 46.8135 97.3053C47.2791 97.8775 47.8791 98.3663 48.5778 98.7424C49.2765 99.1185 50.0596 99.3743 50.8803 99.4944C51.701 99.6146 52.5425 99.5966 53.3547 99.4417C54.1668 99.2868 54.933 98.998 55.6074 98.5927C56.2818 98.1873 56.8507 97.6737 57.2801 97.0824L71.9084 78.4598C72.0565 78.2708 72.2481 78.1079 72.4724 77.9803C72.6966 77.8527 72.9491 77.763 73.2153 77.7163C73.4815 77.6696 73.7562 77.6668 74.0237 77.7081C74.2912 77.7494 74.5462 77.834 74.7741 77.9571L90.3339 86.3329C93.553 88.0643 97.4708 88.6669 101.226 88.008C104.982 87.3492 108.267 85.4829 110.361 82.8193L123.205 66.4775L124.387 71.0947C124.728 72.4277 125.695 73.5938 127.075 74.3366C128.455 75.0794 130.135 75.338 131.745 75.0555C133.355 74.773 134.764 73.9726 135.661 72.8303C136.559 71.688 136.871 70.2974 136.53 68.9644L132.241 52.2112C131.9 50.8782 130.933 49.7121 129.553 48.9693C128.173 48.2265 126.493 47.9679 124.883 48.2504L104.645 51.8009C103.035 52.0834 101.626 52.8838 100.729 54.0261C99.8314 55.1684 99.519 56.559 99.8603 57.892Z" fill="white"/>
</svg>
