<svg width="132" height="77" viewBox="0 0 132 77" fill="none" xmlns="http://www.w3.org/2000/svg">
<path d="M72 14H62V24H72V14Z" fill="#7177F8"/>
<path d="M82 14H72V24H82V14Z" fill="#7177F8"/>
<path d="M112 14H102V24H112V14Z" fill="#7177F8"/>
<path d="M122 14H112V24H122V14Z" fill="#7177F8"/>
<path d="M62 24H52V34H62V24Z" fill="#7177F8"/>
<path d="M72 24H62V34H72V24Z" fill="#7177F8"/>
<path d="M82 24H72V34H82V24Z" fill="#7177F8"/>
<path d="M92 24H82V34H92V24Z" fill="#7177F8"/>
<path d="M102 24H92V34H102V24Z" fill="#7177F8"/>
<path d="M112 24H102V34H112V24Z" fill="#7177F8"/>
<path d="M122 24H112V34H122V24Z" fill="#7177F8"/>
<path d="M132 24H122V34H132V24Z" fill="#7177F8"/>
<path d="M62 34H52V44H62V34Z" fill="#7177F8"/>
<path d="M72 34H62V44H72V34Z" fill="#7177F8"/>
<path d="M82 34H72V44H82V34Z" fill="#7177F8"/>
<path d="M92 34H82V44H92V34Z" fill="#7177F8"/>
<path d="M102 34H92V44H102V34Z" fill="#7177F8"/>
<path d="M112 34H102V44H112V34Z" fill="#7177F8"/>
<path d="M122 34H112V44H122V34Z" fill="#7177F8"/>
<path d="M132 34H122V44H132V34Z" fill="#7177F8"/>
<path d="M72 44H62V54H72V44Z" fill="#7177F8"/>
<path d="M82 44H72V54H82V44Z" fill="#7177F8"/>
<path d="M92 44H82V54H92V44Z" fill="#7177F8"/>
<path d="M102 44H92V54H102V44Z" fill="#7177F8"/>
<path d="M112 44H102V54H112V44Z" fill="#7177F8"/>
<path d="M122 44H112V54H122V44Z" fill="#7177F8"/>
<path d="M82 54H72V64H82V54Z" fill="#7177F8"/>
<path d="M92 54H82V64H92V54Z" fill="#7177F8"/>
<path d="M102 54H92V64H102V54Z" fill="#7177F8"/>
<path d="M112 54H102V64H112V54Z" fill="#7177F8"/>
<path d="M92 64H82V74H92V64Z" fill="#7177F8"/>
<path d="M102 64H92V74H102V64Z" fill="#7177F8"/>
<path d="M18.5455 58.8182V28.8182H23.6364V58.8182H18.5455ZM6.09091 46.3636V41.2727H36.0909V46.3636H6.09091Z" fill="white"/>
</svg>
