<svg width="185" height="185" viewBox="0 0 185 185" fill="none" xmlns="http://www.w3.org/2000/svg">
<path d="M41.1111 185H20.5555C14.9028 185 10.0654 182.989 6.04333 178.967C2.0213 174.945 0.00685185 170.104 0 164.444V92.5C0 79.6528 2.44269 67.6209 7.32805 56.4044C12.2134 45.188 18.8049 35.4241 27.1025 27.1128C35.4001 18.8015 45.164 12.2066 56.3942 7.32807C67.6243 2.44955 79.6596 0.00686622 92.5 1.43745e-05C105.34 -0.00683748 117.376 2.43585 128.606 7.32807C139.836 12.2203 149.6 18.8118 157.897 27.1025C166.195 35.3932 172.79 45.1571 177.682 56.3942C182.574 67.6312 185.014 79.6665 185 92.5V164.444C185 170.097 182.989 174.938 178.967 178.967C174.945 182.996 170.104 185.007 164.444 185H143.889C138.236 185 133.399 182.989 129.377 178.967C125.355 174.945 123.34 170.104 123.333 164.444V123.333C123.333 117.681 125.348 112.843 129.377 108.821C133.406 104.799 138.243 102.785 143.889 102.778H164.444V92.5C164.444 72.4583 157.466 55.4589 143.509 41.5017C129.551 27.5445 112.548 20.5624 92.5 20.5556C72.4515 20.5487 55.452 27.5308 41.5017 41.5017C27.5513 55.4726 20.5693 72.472 20.5555 92.5V102.778H41.1111C46.7639 102.778 51.6047 104.792 55.6336 108.821C59.6625 112.85 61.6735 117.687 61.6666 123.333V164.444C61.6666 170.097 59.6556 174.938 55.6336 178.967C51.6116 182.996 46.7707 185.007 41.1111 185Z" fill="white"/>
</svg>
